<svg id="Layer_1" data-name="Layer 1" xmlns="http://www.w3.org/2000/svg" viewBox="0 0 1795.48 176.34"><defs><style>.cls-1{fill:#005bc1;}.cls-2{fill:#0dbe98;}.cls-3,.cls-4{fill:#ec1c24;}.cls-3,.cls-5,.cls-6{fill-rule:evenodd;}.cls-5{fill:#010101;}.cls-7{fill:#39017d;}.cls-8{fill:#3a017d;}.cls-9{fill:#7f21fe;}.cls-10{fill:#3a027d;}.cls-11{fill:#7f22fe;}.cls-12{fill:#0f6cc9;}.cls-13{fill:#eb680f;}.cls-14{fill:#cb1244;}.cls-15{fill:#685ba3;}.cls-16{fill:#1986c8;}.cls-17{fill:#13a438;}.cls-18{fill:#f9b700;}.cls-19{fill:#12100b;}.cls-20{fill:#231f20;}.cls-21{fill:#bbbac0;}.cls-22{fill:#c82127;}.cls-23{fill:#0b8d86;}.cls-24{fill:#814995;}.cls-25{fill:#777c8f;}.cls-26{fill:#5495cf;}.cls-27{fill:#dc9227;}.cls-28{fill:#8eb73f;}.cls-29{fill:#c82c8b;}.cls-30,.cls-31{fill:none;stroke:#000;stroke-miterlimit:3.86;}.cls-30{stroke-width:0.77px;}.cls-31{stroke-width:0.61px;}</style></defs><path class="cls-1" d="M111,56.08c0-1.45,0-2.85,0-4.26,0-3.63.1-7.26.11-10.9,0-5.72.09-11.44.06-17.16,0-3.66-.11-7.31-.27-11a9.76,9.76,0,0,0-.75-3c-.58-1.5-1.91-2-3.37-2.15-.91-.11-1.24-.6-.94-1.46a.63.63,0,0,1,.43-.33Q114,4.43,121.73,3l.17,0V20.68l.68-.32c4.28-2,8.67-2.62,13.12-.7a14.39,14.39,0,0,1,8.11,9.44,24.23,24.23,0,0,1-1.91,19.77c-2.66,4.71-6.9,7.35-12.13,8.44a33.83,33.83,0,0,1-11.79.06c-2.11-.3-4.2-.73-6.3-1.11C111.44,56.21,111.2,56.13,111,56.08Zm10.83-14.66h0c0,2.15,0,4.29,0,6.43s.1,4.08.17,6.12c0,.38,0,.84.53.93,2.52.37,4.86.09,6.6-2a15.45,15.45,0,0,0,1.77-2.62,28,28,0,0,0,2.68-12.42,23.55,23.55,0,0,0-1.8-10.32,8.8,8.8,0,0,0-3.11-3.92c-2-1.33-4.17-1.15-6.37-.41-.39.14-.5.29-.5.67q0,8.78,0,17.54Z" transform="translate(-2.52 -2.91)"/><path class="cls-1" d="M22,7.81c-.15,7.13-.3,14.18-.45,21.29C23.84,29,26,29,28.09,28.81a4.46,4.46,0,0,0,3.74-2.6c.69-1.43,1.17-3,1.79-4.58h1.92V39.41h-2c-.36-1.17-.63-2.32-1.05-3.41-1-2.45-2.64-3.88-5.43-3.84-1.75,0-3.51-.15-5.37-.24,0,.85,0,1.65,0,2.45.11,3.83.15,7.67.38,11.49A26.16,26.16,0,0,0,22.93,51,4.28,4.28,0,0,0,27,54.3c.94.09,1.87.31,2.77.46.2,2.07.2,2.07-1.73,2.07H2.53V54.77c.93-.19,1.89-.44,2.87-.58a4,4,0,0,0,3.36-2.78,17.3,17.3,0,0,0,.93-4.18c.56-8.2.57-16.42.45-24.64,0-3-.2-6.05-.45-9.06a16.85,16.85,0,0,0-.86-3.88A4.56,4.56,0,0,0,4.5,6.47l-2-.21V4H45c.09,4.88.17,9.79.25,14.79l-2,.64c-.53.16-.57-.27-.67-.59a24.41,24.41,0,0,0-3.2-6.62,10.1,10.1,0,0,0-8.62-4.45C27.91,7.82,25.06,7.81,22,7.81Z" transform="translate(-2.52 -2.91)"/><path class="cls-1" d="M39.9,37.58a20.39,20.39,0,0,1,5.27-14.07,17,17,0,0,1,10.36-5.24,20.78,20.78,0,0,1,10.4,1,15.5,15.5,0,0,1,9.55,10,24.32,24.32,0,0,1-.1,17.14C72.8,53,67.88,56.77,60.81,57.64a20.58,20.58,0,0,1-9.9-1c-5.3-2-8.44-6-10-11.3A27.94,27.94,0,0,1,39.9,37.58Zm25.61,1.94.21,0c-.28-3-.44-6.12-.84-9.16A16.1,16.1,0,0,0,62.19,23c-2.12-3-5.95-3.17-8-.28a11.81,11.81,0,0,0-1.47,3A30.34,30.34,0,0,0,51.43,34a49.61,49.61,0,0,0,.66,12.41,16.43,16.43,0,0,0,2.65,6.76,4.68,4.68,0,0,0,7.81,0,13.21,13.21,0,0,0,1.75-3.72A38.66,38.66,0,0,0,65.51,39.52Z" transform="translate(-2.52 -2.91)"/><path class="cls-1" d="M181.71,36.23h-1.78c-6.62,0-13.25,0-19.88,0-.65,0-.87.12-.84.84a23.56,23.56,0,0,0,1,6.61c1.9,5.72,6.3,8.75,12.31,8.57a12.31,12.31,0,0,0,7-2.29c.28-.2.6-.66,1-.09s.85.82.25,1.54a17.2,17.2,0,0,1-10.92,6.16,18.66,18.66,0,0,1-13-2.34,17.21,17.21,0,0,1-8-10.93c-1.62-6.43-1-12.62,2.61-18.29a16.45,16.45,0,0,1,12.21-7.74,18.59,18.59,0,0,1,7.05.25,12.82,12.82,0,0,1,8.38,6.42A23.06,23.06,0,0,1,181.71,36.23Zm-22.48-2.84,11.39-.28c-.15-2-.22-3.8-.46-5.61a12.15,12.15,0,0,0-1.71-5.26,3.22,3.22,0,0,0-4.84-.9,4.84,4.84,0,0,0-1,1c-2.46,3.23-3,7-3.35,11.06Z" transform="translate(-2.52 -2.91)"/><path class="cls-1" d="M210.64,25c0,1.47,0,2.93,0,4.39,0,1-.9.66-1.37.94-.06,0-.48-.33-.57-.57A17.3,17.3,0,0,0,204.88,23a7.08,7.08,0,0,0-5.78-2.08c-2.84.27-4.66,2.61-4.59,5.59a5.4,5.4,0,0,0,3.3,4.79c2.36,1.26,4.84,2.33,7.28,3.46A14.09,14.09,0,0,1,211,39.1a9.11,9.11,0,0,1,1.62,5,12.44,12.44,0,0,1-1.78,7.51A13.13,13.13,0,0,1,202,57.32a27.69,27.69,0,0,1-10.58,0c-2.22-.37-4.39-1-6.58-1.56-.47-.12-.6-.4-.61-.88q-.08-5-.22-10c0-.55.34-.55.65-.64,1.34-.4,1.06-.36,1.48.7a19.93,19.93,0,0,0,3.69,6.45,8.38,8.38,0,0,0,8,2.69,5.46,5.46,0,0,0,4.39-4.37,5.13,5.13,0,0,0-2.67-5.87,42.43,42.43,0,0,0-5.12-2.38,23,23,0,0,1-6.19-3.24c-2.87-2.39-3.76-5.54-3.47-9.13.46-5.6,5-9.63,10.49-10.65a28.18,28.18,0,0,1,14.13,1.18,1.24,1.24,0,0,1,1,1.44c-.08,1.31,0,2.62,0,3.93Z" transform="translate(-2.52 -2.91)"/><path class="cls-1" d="M77.11,21.31l16.1-3.26v8.22c.46-.8.88-1.61,1.37-2.38a12.49,12.49,0,0,1,6.3-5.41,8.86,8.86,0,0,1,6.69.16c.56.24.73.51.49,1.14-1.22,3.16-2.39,6.33-3.62,9.61l-.81-.44a9.91,9.91,0,0,0-9-.69A2.24,2.24,0,0,0,93,30.6c.06,4.21-.1,8.42,0,12.63a68.35,68.35,0,0,0,.54,7.83c.34,2.62,1.38,3.4,4,3.54.64,0,1.29.1,2,.16v2.08H78.29c-1.49,0-1.2,0-1.23-1.2v-.82c.42-.08.8-.17,1.19-.22,2.4-.3,3.55-1.34,3.76-3.75s.29-5.13.35-7.69c.07-3.2.11-6.41.06-9.6,0-2.29-.19-4.58-.4-6.86s-1.22-3.28-3.52-3.6C77,22.89,77,22.89,77.11,21.31Z" transform="translate(-2.52 -2.91)"/><path d="M330.52,50.29h10.33l5.53-31.7H336.06L334,29.94h-8.95l2-11.35H316.77l-5.53,31.7h10.33l2.08-11.86h9Zm21.72-31.74-3.15,17.64a20.57,20.57,0,0,0-.39,4c0,9.35,8.17,10.76,13.08,10.76,10.29,0,14.73-3.41,16.34-12.64l3.45-19.75H371.24L368.3,35.09c-.94,5.18-1.61,7.89-5.46,7.89-2.51,0-3.73-1.33-3.73-4.08a21.69,21.69,0,0,1,.47-4l3-16.41H352.24Zm83.92,31.74h10.33l1.45-8.17h4.87c9,0,14-4.87,14-13.75,0-6.24-4.32-9.82-11.9-9.82h-13.2Zm16.1-16h-3l1.38-7.46h2.79c2.27,0,3.49,1.14,3.49,3.22C456.93,32.69,455.16,34.3,452.26,34.3Zm34.6-16.41c-11.24,0-17.95,7.26-17.95,19.48,0,8.48,5.34,13.58,14.29,13.58,11.23,0,17.95-7.26,17.95-19.48,0-8.52-5.3-13.58-14.29-13.58Zm-3,24.86c-2.67,0-4.24-1.93-4.24-5.15a17.88,17.88,0,0,1,.35-3.49c.79-4.17,2.12-8,6.33-8,2.67,0,4.24,1.93,4.24,5.15a17.16,17.16,0,0,1-.36,3.49C489.37,38.9,488,42.75,483.83,42.75Zm53.25,7.54h10.33l4.08-23.21h7.78l1.49-8.49H534.33l-1.49,8.49h8.25ZM520,30.3c-3.26-1-4.59-1.46-4.59-3,0-1,.66-2.24,2.63-2.24a3.3,3.3,0,0,1,3.14,2.05l9.11-2.48c-1.06-4.48-4.91-6.75-11.55-6.75-12.48,0-13.47,8.36-13.47,10.91,0,5.19,2.75,8.37,8.72,10,1.57.43,3.38.9,3.38,2.63,0,1.37-1,2.24-2.79,2.24a4.17,4.17,0,0,1-3.93-2.59l-9,2.43c1,4.71,5.42,7.38,12.37,7.38,5.3,0,14.18-1.41,14.18-11,0-4.79-2.67-7.93-8.21-9.62Z" transform="translate(-2.52 -2.91)"/><path class="cls-2" d="M305.46,50.29,311,18.59H294v31.7ZM565.2,18.59l-5.54,31.7h17.09V18.59Z" transform="translate(-2.52 -2.91)"/><path d="M393.9,40.94h8.68L404,33h-8.67l1-5.89h12.13l1.49-8.53H387.46l-5.54,31.74h10.33Zm27.06,0h8.72l1.41-8h-8.68l1-5.89h12.14L437,18.55H414.56L409,50.29h10.33Z" transform="translate(-2.52 -2.91)"/><path class="cls-3" d="M1290.06,5c-.2,3.38-.4,6.76-.6,10.25l-5.06-.18c-.12-2.13-.23-4.19-.35-6.32h-7.89V23.89h3.42c.26-1.1.53-2.19.8-3.33h3.52V31h-3.46c-.28-1.11-.57-2.26-.87-3.43h-3.39v16h7.92c.26-2.28.51-4.54.77-6.93l5.33.18c.14,3.56.28,7.06.42,10.62h-25.93V43.7l3.64-.63V9.16l-4.07-.45V5Z" transform="translate(-2.52 -2.91)"/><path class="cls-3" d="M1381.82,61.8c.07-1,.13-2,.19-2.92l2.75-.6V22.1l-3.26-.49v-3l8.63-1.2.9,3.23a2.59,2.59,0,0,0,.35-.31,8.79,8.79,0,0,1,7.92-3c3.89.38,6,2.83,7.11,6.34a22.76,22.76,0,0,1,.92,4.83,37.59,37.59,0,0,1-.34,10.05,18,18,0,0,1-1.06,3.61,9,9,0,0,1-8,5.67,11.16,11.16,0,0,1-5.59-.81,3.49,3.49,0,0,0-.43-.12V58.28l2.94.61c-.07,1-.13,1.9-.2,2.91Zm10-18.91a9,9,0,0,0,6.78.23,1.11,1.11,0,0,0,.81-.85,33.68,33.68,0,0,0,.78-3.38,48.59,48.59,0,0,0,.18-10.44,15.47,15.47,0,0,0-.67-3.5c-.76-2.46-2.43-3.41-5-3l-.38.08a3,3,0,0,0-2.5,3q0,8.48,0,17Z" transform="translate(-2.52 -2.91)"/><path class="cls-3" d="M1477.8,43.74l3,.61c0,1-.11,2-.16,3.07h-9.88c0-.22,0-.44,0-.65,0-6.56,0-13.13,0-19.69a8.89,8.89,0,0,0-.47-2.64,2.73,2.73,0,0,0-2.21-1.81,4.86,4.86,0,0,0-3,.25,2.15,2.15,0,0,0-1.48,2q0,9.32,0,18.62a1.57,1.57,0,0,0,.07.29l2.9.59c-.06,1-.12,2-.19,3.09h-12.72V44.36l2.83-.61V22.4l-3.24-.37V18.89l8.39-1.2q.39,1.39.75,2.73c.64-.48,1.29-1.05,2-1.51a9.59,9.59,0,0,1,8.81-1,6.66,6.66,0,0,1,4.36,5.6,13.76,13.76,0,0,1,.18,2.22c0,5.63,0,11.25,0,16.87Z" transform="translate(-2.52 -2.91)"/><path class="cls-3" d="M1303.08,43.75l2.93.59c-.06,1-.12,2-.19,3.08H1293c.06-1,.11-2,.17-3.07l2.73-.59c.2-.69.25-20.27,0-21.36l-3.24-.37V18.89l8.41-1.2c.25.93.5,1.81.76,2.79.24-.2.5-.45.78-.68a9.88,9.88,0,0,1,9.16-2.13,6.69,6.69,0,0,1,5.2,5.63,11.1,11.1,0,0,1,.21,2.31c0,5.65,0,11.31,0,17v1.17l3,.59c0,.52,0,1-.07,1.52s0,1,0,1.58h-9.93V46.31q0-9.31,0-18.62a15,15,0,0,0-.18-2.22,3.14,3.14,0,0,0-3-2.9c-1.26-.12-2.53-.09-3.45,1a2.27,2.27,0,0,0-.54,1.5c0,4.72,0,9.43,0,14.15,0,1.17,0,2.33,0,3.49C1303,43.07,1303.06,43.39,1303.08,43.75Z" transform="translate(-2.52 -2.91)"/><path class="cls-3" d="M1523.22,21.61l-3.26-.32V18.52l9.6-1.1a11,11,0,0,1,.8,3.53c0,7.2,0,14.41,0,21.62v1.17l3,.61c-.1,1-.2,2-.31,3.07h-8.27c-.23-.73-.49-1.51-.78-2.39-.27.21-.47.35-.65.51a9.77,9.77,0,0,1-10.78,1.38,6.93,6.93,0,0,1-3.86-5.37,13.83,13.83,0,0,1-.2-2.41c0-5.43,0-10.86,0-16.29V21.64l-3.27-.36V18.52l9.56-1.1a13.65,13.65,0,0,1,.73,3.19q0,8.54,0,17.07a17.81,17.81,0,0,0,.16,2.31,3.54,3.54,0,0,0,3.7,3.36,8.7,8.7,0,0,0,2.2-.3,3.08,3.08,0,0,0,1.77-2.33q0-9.4,0-18.81A2.21,2.21,0,0,0,1523.22,21.61Z" transform="translate(-2.52 -2.91)"/><path class="cls-3" d="M1365.83,34.46a11,11,0,0,0,1.66,6.44,5.66,5.66,0,0,0,4.82,2.6,13.61,13.61,0,0,0,5.56-1.11c.23-.1.47-.18.8-.31l1.2,2.76a18.92,18.92,0,0,1-1.58,1.06,14.48,14.48,0,0,1-11.3,1.44,11,11,0,0,1-6.93-6.32,20.41,20.41,0,0,1-1.63-10.6,19,19,0,0,1,1.62-6.45,10.59,10.59,0,0,1,7.63-6.4c3.51-.74,6.77-.3,9.46,2.3a12.24,12.24,0,0,1,3.09,5.61,23.84,23.84,0,0,1,.86,6.6,8.12,8.12,0,0,1-.66,2.2Zm8.82-3.82c-.08-.9-.12-1.63-.21-2.37a13.14,13.14,0,0,0-1.42-5,3.29,3.29,0,0,0-4.27-1.63,2.22,2.22,0,0,0-1.5,1.36,22.58,22.58,0,0,0-1.56,7.44,2.76,2.76,0,0,0,.11.6Z" transform="translate(-2.52 -2.91)"/><path class="cls-3" d="M1504,34.28l-14.59.18a9.57,9.57,0,0,0,.24,3,8.59,8.59,0,0,0,1.82,4,5.5,5.5,0,0,0,4.22,2,12.76,12.76,0,0,0,5.39-1c.35-.15.71-.28,1.15-.45l1.2,2.8-.48.32a14.71,14.71,0,0,1-10.29,2.6c-4.58-.5-7.64-3.19-9.3-7.36a21,21,0,0,1,.16-16.24,10.39,10.39,0,0,1,7.67-6.63,10.27,10.27,0,0,1,8.35,1.33,10.6,10.6,0,0,1,3.73,5.07,20.6,20.6,0,0,1,1.33,8.07A9.7,9.7,0,0,1,1504,34.28Zm-5.83-3.63a21.33,21.33,0,0,0-.89-5.73,8.08,8.08,0,0,0-1.35-2.54c-1.15-1.48-4.71-1.18-5.25.85a40.67,40.67,0,0,0-1.23,4.95,9.1,9.1,0,0,0-.11,2.87Z" transform="translate(-2.52 -2.91)"/><path class="cls-3" d="M1452.05,34.28l-14.6.18c0,2.63.44,5,2.1,7a5.43,5.43,0,0,0,4.12,2,13.06,13.06,0,0,0,5.49-1l1.14-.46c.39.91.77,1.78,1.18,2.75-.34.25-.65.51-1,.73a14.65,14.65,0,0,1-10.87,2.07,10.78,10.78,0,0,1-7.74-6.18A19.8,19.8,0,0,1,1430,31a19.6,19.6,0,0,1,1.66-7,10.61,10.61,0,0,1,5.71-5.78,10.88,10.88,0,0,1,9.54.3,9.77,9.77,0,0,1,4.23,5,21.46,21.46,0,0,1,1.55,8.52A8.37,8.37,0,0,1,1452.05,34.28Zm-5.78-3.64c-.09-1-.14-1.84-.25-2.69a12.45,12.45,0,0,0-1.35-4.61,3.34,3.34,0,0,0-4.6-1.58,1.87,1.87,0,0,0-1.08,1,20.21,20.21,0,0,0-1.53,6c-.09.73-.13,1.45-.2,2.32Z" transform="translate(-2.52 -2.91)"/><path class="cls-3" d="M1346.6,17.69c.23.9.44,1.73.66,2.63l1-.63a16.48,16.48,0,0,1,6.61-2,2.52,2.52,0,0,1,2.59,1.19c-.29,2.58-.58,5.2-.88,7.91l-4.76-.19c-.18-1.45-.35-2.82-.52-4.24a6.19,6.19,0,0,0-3,1.06V43.77l2.94.67c0,1-.11,1.94-.16,3h-12.71v-3l2.66-.67V22.39L1338,22V18.89Z" transform="translate(-2.52 -2.91)"/><path class="cls-3" d="M1535.12,47.44c.05-1,.09-2,.14-3l2.64-.65V22.41l-3.12-.38V18.89l8.66-1.19c.23.9.44,1.73.64,2.49a36.45,36.45,0,0,1,3.67-1.65,31,31,0,0,1,3.87-.84,2.37,2.37,0,0,1,2.71,1.18c-.28,2.52-.57,5.14-.88,7.88l-4.74-.17c-.18-1.46-.36-2.85-.55-4.4l-3,1V43.77l2.93.67c-.06,1-.12,2-.19,3Z" transform="translate(-2.52 -2.91)"/><path class="cls-3" d="M1423,22.17l-3,1.11V43.77l3,.67c-.08,1-.16,2-.24,3H1410v-3l2.7-.68V22.4l-3.1-.36V18.9l8.59-1.21c.25.86.49,1.71.73,2.55.84-.43,1.65-.89,2.49-1.29a16.62,16.62,0,0,1,4.95-1.26,2.61,2.61,0,0,1,2.76,1.15c-.27,2.53-.56,5.15-.86,7.92l-4.77-.17C1423.32,25.13,1423.15,23.77,1423,22.17Z" transform="translate(-2.52 -2.91)"/><path class="cls-3" d="M1330.38,12v6h5.28c-.12,1.34-.22,2.54-.33,3.78l-4.75.54a5.42,5.42,0,0,0-.1.77l0,17.34a8.93,8.93,0,0,0,0,1.16,2.2,2.2,0,0,0,2.23,2c1,0,1.92,0,3,0,.11,1.08.22,2.09.32,3.11a6,6,0,0,1-2.4.81,14.8,14.8,0,0,1-5.39.15,5.59,5.59,0,0,1-4.88-5.11,16.87,16.87,0,0,1-.07-1.74q0-8.73,0-17.44c0-.35,0-.69-.07-1.05l-3.33-.56c0-1.2.1-2.38.16-3.68l3.76-.18c.56-1.88,1.11-3.75,1.68-5.67Z" transform="translate(-2.52 -2.91)"/><path class="cls-4" d="M1555.08,45.6a2.51,2.51,0,1,1-2.47-2.1A2.3,2.3,0,0,1,1555.08,45.6Zm-4.21,0a1.75,1.75,0,0,0,3.49,0,1.75,1.75,0,0,0-3.49,0Zm1.43,1h-.68v-2a7.81,7.81,0,0,1,1-.06,1.8,1.8,0,0,1,.89.15.48.48,0,0,1,.24.43c0,.19-.21.36-.52.44v0a.61.61,0,0,1,.46.5,2.08,2.08,0,0,0,.16.47h-.77a1.13,1.13,0,0,1-.15-.42.35.35,0,0,0-.38-.29h-.23Zm0-1.12h.2c.25,0,.42-.08.42-.23s-.16-.24-.39-.24h-.23Z" transform="translate(-2.52 -2.91)"/><path class="cls-5" d="M1798,42.25a5.55,5.55,0,1,1-5.5-5.55,5.56,5.56,0,0,1,5.5,5.55Z" transform="translate(-2.52 -2.91)"/><path class="cls-6" d="M1774.65,29.27l13.3-1.38q-2-12.37-14.56-14.1c-12.6-1.72-20.4,4.13-22.46,7.11s-3.09,5.61-3.32,10.43,2.75,9.17,3.78,10.31,5.73,6.76,17.65,6.76,15.81-4.58,17.76-8.82a11.58,11.58,0,0,0,1.15-4.47h-13.07q-.57,5.16-5.84,5.16c-5.27,0-6-4.93-5.73-8.94s-.12-9.28,5.5-9.51Q1774.42,21.58,1774.65,29.27Z" transform="translate(-2.52 -2.91)"/><path class="cls-5" d="M1749.07,38.2v9.44H1725.3V37.87h4.49v-.29c0-3.32,0-6.63,0-9.95A4.31,4.31,0,0,0,1729,25a4.19,4.19,0,0,0-2.73-1.59,6.51,6.51,0,0,0-5.44,1.18,5.68,5.68,0,0,0-2.28,4.56c0,2.89,0,5.78,0,8.68,1.54.08,3.06.08,4.6.08v9.78H1698.8V37.88h4.37V23.21h-4.38V13.43H1718v6.74c.28-.3.51-.53.72-.77a15.66,15.66,0,0,1,5.33-4.19,15.45,15.45,0,0,1,4.61-1.29,22.75,22.75,0,0,1,8.06.37,11.56,11.56,0,0,1,5.24,2.62,9.12,9.12,0,0,1,2.89,5.23,16.63,16.63,0,0,1,.27,2.82c0,4.17,0,8.34,0,12.51v.38h4Zm-77.26-24.78H1666V2.91h31.12V13.36h-5.81V37.85h5.8v9.78H1666V37.87h5.79Z" transform="translate(-2.52 -2.91)"/><path class="cls-7" d="M272.49,108.89h10.29v15.77l.25-.24c2.81-3.14,6.37-3.84,10.29-2.9,3.76.91,5.86,3.57,6.76,7.21a15.15,15.15,0,0,1,.47,3.61c.05,6.16,0,12.32,0,18.49,0,.1,0,.2,0,.34H290.21v-.65c0-5,0-10,0-15.07a9.44,9.44,0,0,0-.31-2.36,3,3,0,0,0-2.73-2.35,3.42,3.42,0,0,0-3.48,1.52,6,6,0,0,0-.85,3.39v15.52H272.49Z" transform="translate(-2.52 -2.91)"/><path class="cls-8" d="M259,124.41v-2.52h10v29.29H259v-2.67l-.62.67a9.56,9.56,0,0,1-6.65,2.77,13.56,13.56,0,0,1-13.7-9.69c-2-6.06-1.1-11.72,3.15-16.62a12.81,12.81,0,0,1,13.68-3.85,8.9,8.9,0,0,1,3.84,2.48l.18.15S258.92,124.42,259,124.41ZM247.1,136.55a6.07,6.07,0,1,0,6.09-6,6,6,0,0,0-6.09,6Z" transform="translate(-2.52 -2.91)"/><path class="cls-8" d="M203.59,121.85h3.11c2.52,0,5,0,7.56,0a.7.7,0,0,1,.77.54q3.14,8,6.29,16.09c.06.14.12.29.22.57.12-.28.21-.46.28-.64q3.15-8,6.29-16a.77.77,0,0,1,.85-.6c3.22,0,6.44,0,9.66,0h.66c-.09.25-.15.44-.23.62q-8.09,19.52-16.18,39a.79.79,0,0,1-.86.6c-3.26,0-6.52,0-9.78,0h-.6c.08-.23.13-.39.2-.55q2-4.77,4-9.55a1.25,1.25,0,0,0,0-1.13l-12-28.37C203.76,122.31,203.7,122.11,203.59,121.85Z" transform="translate(-2.52 -2.91)"/><path class="cls-8" d="M318.45,121.12c7,0,12.9,4.11,14.91,10.47,3.15,10-3.38,20.17-14.56,20.36-5.65.1-10.32-2-13.5-6.75-5.8-8.69-1.7-22.12,10.82-23.88C316.89,121.22,317.67,121.19,318.45,121.12Zm0,9.54a5.91,5.91,0,1,0,5.85,5.94,5.76,5.76,0,0,0-5.85-5.94Z" transform="translate(-2.52 -2.91)"/><path class="cls-8" d="M335.89,136.9a15.3,15.3,0,0,1,16.26-15.72c5.54.24,10,2.49,12.94,7.32,5.39,8.95.84,22-11.59,23.35-5.7.62-10.6-1.11-14.31-5.63A14.72,14.72,0,0,1,335.89,136.9Zm15.73-6.24a5.91,5.91,0,1,0,5.84,5.93,5.78,5.78,0,0,0-5.84-5.93Z" transform="translate(-2.52 -2.91)"/><path class="cls-8" d="M372.33,135.46l11-26.58h12.29c-.07.2-.14.38-.21.56q-5.27,12.72-10.52,25.44a.79.79,0,0,1-.86.6c-3.68,0-7.37,0-11,0Z" transform="translate(-2.52 -2.91)"/><path class="cls-9" d="M326.27,163.54v-1.4h6v16.55h-5.94V177a5.79,5.79,0,0,1-3.5,2.06,7.22,7.22,0,0,1-7.38-3,9.92,9.92,0,0,1,.42-11.93,7.23,7.23,0,0,1,7.89-2.16A18,18,0,0,1,326.27,163.54Zm.14,6.9a3.32,3.32,0,0,0-3.4-3.36,3.36,3.36,0,1,0,3.4,3.36Z" transform="translate(-2.52 -2.91)"/><path class="cls-9" d="M312,178.71h-6.1v-8.84a5.29,5.29,0,0,0-.13-1.19,1.82,1.82,0,0,0-1.66-1.5,1.88,1.88,0,0,0-2.09,1.16,4.54,4.54,0,0,0-.31,1.63c0,2.68,0,5.36,0,8v.69h-6.07V162.13h6.05v1.79l.33-.35a5.71,5.71,0,0,1,8.48-.12,6.7,6.7,0,0,1,1.49,4c0,.34,0,.68,0,1Z" transform="translate(-2.52 -2.91)"/><path class="cls-9" d="M340.87,162.13v1.69c.12-.07.19-.09.23-.14a5.35,5.35,0,0,1,5.88-1.84,5.16,5.16,0,0,1,4,4.32,8.73,8.73,0,0,1,.22,1.84c0,3.42,0,6.84,0,10.26,0,.14,0,.27,0,.44H345.1V178c0-2.72,0-5.45,0-8.17a4.69,4.69,0,0,0-.13-1.18,1.83,1.83,0,0,0-1.71-1.51,1.89,1.89,0,0,0-2.09,1.26,5,5,0,0,0-.26,1.58c0,2.66,0,5.33,0,8v.68h-6.07V162.13Z" transform="translate(-2.52 -2.91)"/><path class="cls-9" d="M384.24,172H372.81a2.44,2.44,0,0,0,1.13,2,3.41,3.41,0,0,0,4.24-.43.68.68,0,0,1,.87-.21c1.52.61,3.05,1.19,4.63,1.8a4.37,4.37,0,0,1-.22.43,8.39,8.39,0,0,1-6.76,3.65,10.29,10.29,0,0,1-5-.74,8,8,0,0,1-4.81-6.93,8.84,8.84,0,0,1,4.32-8.73,9.2,9.2,0,0,1,10,.7,8.26,8.26,0,0,1,3,5.81A26.52,26.52,0,0,1,384.24,172Zm-5.88-3.49c-.07-1.41-1.27-2.3-2.91-2.24a2.43,2.43,0,0,0-2.56,2.24Z" transform="translate(-2.52 -2.91)"/><path class="cls-9" d="M280.75,167V178.7h-6.07V167h-2.17v-4.89h2.1c.08-.81.11-1.56.24-2.3a6.52,6.52,0,0,1,6.49-5.77,17.72,17.72,0,0,1,3.31.35.64.64,0,0,1,.41.46c0,1.54,0,3.08,0,4.67-1.3-.36-2.57-.68-3.66.34a2.49,2.49,0,0,0-.63,2.23h4V167Z" transform="translate(-2.52 -2.91)"/><path class="cls-9" d="M365.73,167.87a13.34,13.34,0,0,0-2.34-.69,5.6,5.6,0,0,0-2.23.21,3.1,3.1,0,0,0-2.12,3.48,3.27,3.27,0,0,0,3,2.82c1.16.14,1.77,0,3.65-.84a2.6,2.6,0,0,1,.05.39c0,1.52,0,3,0,4.56a.61.61,0,0,1-.43.68,9.16,9.16,0,0,1-9-.91c-2.71-1.87-3.67-4.65-3.45-7.85.48-6.86,7.26-9.4,12.35-7.44a.66.66,0,0,1,.51.74C365.72,164.64,365.73,166.26,365.73,167.87Z" transform="translate(-2.52 -2.91)"/><path class="cls-10" d="M368.59,145a6.93,6.93,0,0,1,6.92-6.94h.09a6.63,6.63,0,0,1,6.7,6.77,6.9,6.9,0,0,1-7,6.93A6.64,6.64,0,0,1,368.59,145Z" transform="translate(-2.52 -2.91)"/><path class="cls-11" d="M293,178.72h-6V162.14h6Z" transform="translate(-2.52 -2.91)"/><path class="cls-11" d="M290,153.86a3.37,3.37,0,0,1,3.4,3.35v0a3.41,3.41,0,1,1-3.4-3.38Z" transform="translate(-2.52 -2.91)"/><path class="cls-12" d="M856.29,124.08v1.36h3.85l-4.6,30.34-5.35-31.7h-3.85l-4.6,32.45-4.35-31.21h4.35V124h-13.8v1.37h3l6.1,39.91h5L846.22,140l4.6,25.24h5l6.09-39.79h4v-1.36Zm-50.11,1.24h4v38.54h-3.85v1.37h20.26V154.41h-1a35.13,35.13,0,0,1-.87,6.22,6,6,0,0,1-3.61,3.11,30.24,30.24,0,0,1-4,.25V143.6s3.11-.13,4,.37c1.37,1.12,1.49,3.11,1.74,5.35h1V137.26h-1.12a6,6,0,0,1-1.74,4.35c-1.12,1.12-4,.62-4,.62V125.44a38.47,38.47,0,0,1,5.1.13c3,1.49,3.1,4.85,3.48,7.83h1v-9.32H806.06l.12,1.24Zm-6.22,0h3.86V124H790.27v1.37h3.35v38.54h-4v1.37h14.55v-1.37h-4.1C800,163.8,800,125.32,800,125.32Zm-18,0h3.48l-6.1,35.93c-.12,0-6.09-35.93-6.09-35.93h3.61V124H764v1.37h2l7.59,39.79h6.59l7.08-39.79h2V124h-7.09v1.37Zm-20.39,35.06c-1.5,3.36-6.59,3.48-9,3.48V144.22s3.48,0,4.35.5c1.37,1,1.75,3,2,5h1V137.26h-1.12c-.12,1.86-.25,4.1-2,5.34-1,.75-4.35.37-4.35.37V125.44c1.37,0,4.23-.25,5.47.25,3.11,1.49,3.23,5.1,3.48,8.21h1.12V124H742.65v1.37h3.1V164h-2.86v1.36h20.52V154.54h-1.12A28,28,0,0,1,761.55,160.38Zm-21.64,3.17c-1.74-5.22-2.24-10.44-4.6-15.29-1.49-3-4.72-4.35-7.71-4.6,3.48-.37,7.09-1.74,8.83-5.35,1.12-2.73,1.37-7.21-.37-9.94A9,9,0,0,0,728.6,124H712.43v1.37h4v38.54h-4.1v1.25H727V163.8h-3.61V144.16h.87c1.75.12,4,.74,4.73,2.11,2,3.11,3.61,14.42,4,16.66.12.87,0,1.74.5,2.36h8.82v-1.37a5.55,5.55,0,0,1-2.36-.37ZM723,142.85V125.32c1.12,0,3.86,0,4.6.5,2.86,3,2.61,8.2,2.49,12.18-.25,1.74-.87,3.86-2.61,4.6a20.83,20.83,0,0,1-4.48.25Zm-24,11.94h-1.37a24.67,24.67,0,0,1-.38,5.34c-.62,1.49-1.86,3.36-3.6,3.61h-5.22V125.19h4.35v-1.36H678.12v1.36h3.6v38.55H678v1.37h21c0-3.24-.13-7,0-10.32Zm-33.14-30.71h-6.09l-6.72,39.78h-3.23v1.25h8.58v-1.37H654.8l2.12-12.56h8l2.48,12.56h-3.85v1.37h13.43v-1.37h-2.62C674.32,163.8,665.87,124.08,665.87,124.08Zm-5,25.61h-4L660,130.17l4.22,19.52Zm-12.44-24.37V124H634.29v1.37h3.48v38.54h-3.6v1.37h14.17v-1.37H645V125.32ZM626,163.68c-1.37.74-4,.49-5-.63-2.12-2.48-3.49-6.71-3.73-10.07-.75-7.71-.75-11.44.24-17.53.5-3.48,1.5-7,3.86-9.45,1.49-1.36,4.1-1.12,5.72-.25,3.23,2.12,3.11,6.1,3.36,9.58h1.36V123.89h-1.12c0,.62,0,1.12-.49,1.49-1.12.25-1.74-1.12-2.61-1.37-2.37-1.36-5.72-.87-8.09.38a19,19,0,0,0-9.2,14.92c-.87,9.32.5,19.14,8.21,24.61,2.49,1.12,6,2.49,8.45.63,0,0,2-2,2.74-2s.75,1.36.75,2.24h1.11V154.6h-1.49c-.25,3.42.25,6.15-4.1,9.08Zm-15.54-38.36V124h-8.21v1.37h3.11v27.35L594.38,124h-9.7v1.37h3.48v38.54h-3.6v1.37h8.82v-1.37H589.9V131.29l12.93,34.06h4.35V125.57h3.49Zm-36.93-1.24h-6.34l-6.84,39.78h-3.48v1.25h9.32v-1.37h-4l2.11-12.81h7.34l2.61,12.81h-3.73v1.37h12.8v-1.37h-1.86C581.57,163.8,573.49,124.08,573.49,124.08Zm-9.08,25.36,3-18.28,3.85,18.28Zm-5.84-24.12V124h-8.45v1.37h3.48v28.35l-11.19-29.59h-9.83v1.36h3.49V164h-3.61v1.24h9.2v-1.37h-3.73V132l12.19,33.32h5.22V125.57h3.35A.41.41,0,0,1,558.57,125.32Zm-31.46,0h3.61V124h-14.3v1.37h4v38.54h-4.6v1.37H531v-1.37h-3.86Zm-34.31,0H498v38.54H492.8v1.37h16.29v-1.37h-4.36v-20h3.61c1.86,0,2.24,3.49,2.11,5.35h1.37V136.51h-1.37c.13,2.11-.37,6.09-2.11,6.09h-3.48V125.19c2.24.13,5.72.25,7.33,2,2.12,2.12,2,5.23,2.24,8.09h1V124.08H492.8Z" transform="translate(-2.52 -2.91)"/><g id="layer1"><g id="g3120"><g id="g3108"><path id="path3084" class="cls-13" d="M986,138a7.19,7.19,0,0,0,1.23,11.51l20.13,13.67L997.64,141c-2-5.22-7.64-6.36-11.6-3" transform="translate(-2.52 -2.91)"/><path id="path3086" class="cls-14" d="M1003.37,127.18a7.12,7.12,0,0,0-6,9.82l10.1,23.56,3.55-24.78c.82-6.16-3.89-9-7.65-8.6" transform="translate(-2.52 -2.91)"/><path id="path3088" class="cls-15" d="M1012.59,134.83h1.91s1,0,1.16.48c-.75.6-2.8.68-2.53,3.92l3.21,21.33,10-23.63a7.18,7.18,0,0,0-6.07-9.81,4.89,4.89,0,0,0-.54,0,7.08,7.08,0,0,0-7.17,7.74" transform="translate(-2.52 -2.91)"/><path id="path3090" class="cls-16" d="M1026,141.2l-9.49,21.86,20.13-13.74a7.09,7.09,0,0,0,1.29-11,7.21,7.21,0,0,0-5.2-2.14c-2.5,0-5.18,1.31-6.73,5.06" transform="translate(-2.52 -2.91)"/><path id="path3092" class="cls-17" d="M1034.36,152.43l-18.91,13.07h23.28c4.77,0,7.84-4.88,6.48-9.35a7.29,7.29,0,0,0-6.76-5,7.42,7.42,0,0,0-4.09,1.3" transform="translate(-2.52 -2.91)"/><path id="path3094" class="cls-18" d="M985.5,165.5h22.93l-18.91-13.07c-4.37-2.78-9.28-1.15-11,3.46a7.31,7.31,0,0,0,7,9.61" transform="translate(-2.52 -2.91)"/></g><g id="flowRoot3020"><path id="path3029" class="cls-19" d="M1095.77,165.58V121.17h-10.53L1073.56,140l-11.67-18.78h-10.53v44.41h9.58v-28.8l12.37,18.78h.25l12.5-19v29Z" transform="translate(-2.52 -2.91)"/><path id="path3031" class="cls-19" d="M1134,152.45v-.13a12.31,12.31,0,0,0-.92-5,10.16,10.16,0,0,0-2.73-3.65,16.7,16.7,0,0,0-4.44-2.66,44.64,44.64,0,0,0-6-2q-2.85-.76-4.73-1.33a13.58,13.58,0,0,1-3-1.21,3.73,3.73,0,0,1-1.49-1.42,4.06,4.06,0,0,1-.41-1.87V133a3.35,3.35,0,0,1,1.43-2.76,6.88,6.88,0,0,1,4.28-1.11,15,15,0,0,1,5.71,1.17,32.49,32.49,0,0,1,5.84,3.21l5.07-7.36a25.87,25.87,0,0,0-7.52-4.19,26.64,26.64,0,0,0-9-1.46,19.93,19.93,0,0,0-6.28.95,14.55,14.55,0,0,0-4.91,2.73,12.51,12.51,0,0,0-3.21,4.22,12.84,12.84,0,0,0-1.14,5.49v.12a12.88,12.88,0,0,0,1.05,5.52,10.11,10.11,0,0,0,2.95,3.71,17.08,17.08,0,0,0,4.63,2.51,54.81,54.81,0,0,0,6.09,1.84c1.86.47,3.37.91,4.54,1.33a13.78,13.78,0,0,1,2.72,1.27,3.59,3.59,0,0,1,1.34,1.36,3.92,3.92,0,0,1,.35,1.69v.12a3.49,3.49,0,0,1-1.69,3.08,8.51,8.51,0,0,1-4.72,1.11,16.73,16.73,0,0,1-7-1.46,28.75,28.75,0,0,1-6.25-3.93l-5.77,6.91a26.24,26.24,0,0,0,8.88,5.36,29.19,29.19,0,0,0,10,1.75,22.45,22.45,0,0,0,6.6-.92,15.15,15.15,0,0,0,5.13-2.67,12.1,12.1,0,0,0,3.37-4.31,13.71,13.71,0,0,0,1.2-5.87Z" transform="translate(-2.52 -2.91)"/><path id="path3033" class="cls-19" d="M1177.35,165.58V121.17h-9.65v27.35l-20.8-27.35h-9v44.41h9.64V137.35L1169,165.58Z" transform="translate(-2.52 -2.91)"/><path id="path3035" class="cls-19" d="M1221.05,153.4v-.12a10.12,10.12,0,0,0-2.22-6.95,15.12,15.12,0,0,0-6.09-4,12.52,12.52,0,0,0,2.25-1.52,10.08,10.08,0,0,0,1.84-2.06,10.51,10.51,0,0,0,1.27-2.63,10.83,10.83,0,0,0,.48-3.37v-.12a10.18,10.18,0,0,0-3.91-8.38q-3.9-3.11-10.75-3.11H1183.3v44.41h21.13a28.31,28.31,0,0,0,6.82-.76,15.69,15.69,0,0,0,5.26-2.28,10.31,10.31,0,0,0,3.36-3.81,11.41,11.41,0,0,0,1.18-5.33Zm-12.18-19A3.85,3.85,0,0,1,1207,138a10.14,10.14,0,0,1-5.13,1.11h-9v-9.39h9.64a8.18,8.18,0,0,1,4.76,1.17,3.93,3.93,0,0,1,1.65,3.4Zm2.47,17.77a4,4,0,0,1-1.84,3.65,9.39,9.39,0,0,1-5.07,1.17h-11.61v-9.77h11.29q3.81,0,5.52,1.3a4.19,4.19,0,0,1,1.71,3.52Z" transform="translate(-2.52 -2.91)"/><path id="path3037" class="cls-19" d="M1263.45,158.41l-6.22-6.28a24.92,24.92,0,0,1-5.23,3.81,13.62,13.62,0,0,1-6.44,1.4,12.18,12.18,0,0,1-9.29-4.13,14.1,14.1,0,0,1-2.64-4.44,15.32,15.32,0,0,1-1-5.39v-.13a15.08,15.08,0,0,1,1-5.36,14.07,14.07,0,0,1,2.67-4.41,12.16,12.16,0,0,1,4.09-3,12.37,12.37,0,0,1,5.17-1.08,13.62,13.62,0,0,1,6.06,1.33,23.81,23.81,0,0,1,5.3,3.68l6.21-7.16a26,26,0,0,0-3.29-2.8,20.75,20.75,0,0,0-3.87-2.15,23.27,23.27,0,0,0-4.67-1.4,29.18,29.18,0,0,0-5.68-.51,23.89,23.89,0,0,0-9.39,1.81,22.2,22.2,0,0,0-7.29,5,22.87,22.87,0,0,0-4.76,7.3,23.18,23.18,0,0,0-1.71,8.91v.13a23.4,23.4,0,0,0,1.71,8.94,22.1,22.1,0,0,0,4.76,7.27,22.42,22.42,0,0,0,7.23,4.85,23.07,23.07,0,0,0,9.07,1.78,28.81,28.81,0,0,0,5.84-.54,20.75,20.75,0,0,0,8.82-4.1,32,32,0,0,0,3.55-3.3Z" transform="translate(-2.52 -2.91)"/></g></g></g><path class="cls-20" d="M1480.09,114v4.24h.18a9.57,9.57,0,0,1,4.12-3.85,11.87,11.87,0,0,1,5.18-1.21,14.22,14.22,0,0,1,5.51.91,8.14,8.14,0,0,1,3.38,2.53,9.7,9.7,0,0,1,1.74,4,24.13,24.13,0,0,1,.5,5.15v18.73h-8.36v-17.2a10.62,10.62,0,0,0-1.18-5.62c-.78-1.24-2.18-1.86-4.18-1.86-2.28,0-3.92.68-5,2s-1.53,3.58-1.53,6.68v16h-8.36V114Z" transform="translate(-2.52 -2.91)"/><path class="cls-20" d="M1512.18,137.14a8.61,8.61,0,0,0,9.78.56,5.3,5.3,0,0,0,2.24-2.68h7.36q-1.77,5.47-5.42,7.83a15.94,15.94,0,0,1-8.83,2.35,17.28,17.28,0,0,1-6.48-1.15,13.51,13.51,0,0,1-4.89-3.26,14.86,14.86,0,0,1-3.09-5.07,18.44,18.44,0,0,1-1.09-6.48,17.63,17.63,0,0,1,1.12-6.35,14.72,14.72,0,0,1,8.1-8.49,15.81,15.81,0,0,1,6.33-1.23,14.47,14.47,0,0,1,6.77,1.5,13.64,13.64,0,0,1,4.74,4,16.61,16.61,0,0,1,2.68,5.77,21.73,21.73,0,0,1,.59,6.78h-22Q1510.3,135.32,1512.18,137.14Zm9.46-16a5.9,5.9,0,0,0-4.57-1.65,7.34,7.34,0,0,0-3.33.68,6.53,6.53,0,0,0-2.12,1.67,6.27,6.27,0,0,0-1.11,2.12,9.54,9.54,0,0,0-.39,2h13.61A9.75,9.75,0,0,0,1521.64,121.12Z" transform="translate(-2.52 -2.91)"/><path class="cls-20" d="M1559.41,144.44,1554,124h-.11l-5.19,20.44H1540L1530.38,114h8.83l5.6,20.67h.12L1550,114h8.13l5.18,20.61h.12L1569,114h8.6l-9.6,30.45Z" transform="translate(-2.52 -2.91)"/><path class="cls-20" d="M1584.35,136.87a4.79,4.79,0,0,0,1.44,1.59,6.15,6.15,0,0,0,2,.91,9.49,9.49,0,0,0,2.39.3,8.68,8.68,0,0,0,1.85-.21,6.22,6.22,0,0,0,1.77-.65,4,4,0,0,0,1.33-1.17,3.12,3.12,0,0,0,.53-1.86c0-1.25-.84-2.2-2.51-2.83a51.56,51.56,0,0,0-7-1.88c-1.22-.27-2.41-.6-3.57-1a11.94,11.94,0,0,1-3.09-1.47,7.25,7.25,0,0,1-2.18-2.3,6.5,6.5,0,0,1-.82-3.39,9.14,9.14,0,0,1,1.15-4.83,8.45,8.45,0,0,1,3-3,13.29,13.29,0,0,1,4.24-1.53,26.54,26.54,0,0,1,4.83-.44,24.42,24.42,0,0,1,4.8.47,12.54,12.54,0,0,1,4.15,1.59,9.65,9.65,0,0,1,3,3,9.88,9.88,0,0,1,1.44,4.69h-8a3.64,3.64,0,0,0-1.82-3.27,8.36,8.36,0,0,0-3.89-.86,14.17,14.17,0,0,0-1.53.09,5.32,5.32,0,0,0-1.5.38,3.06,3.06,0,0,0-1.15.86,2.26,2.26,0,0,0-.47,1.5,2.3,2.3,0,0,0,.82,1.83,6.33,6.33,0,0,0,2.15,1.14,27,27,0,0,0,3,.8c1.13.23,2.29.49,3.47.76a36.53,36.53,0,0,1,3.56,1,11.81,11.81,0,0,1,3.09,1.57,7.4,7.4,0,0,1,2.18,2.41,7.08,7.08,0,0,1,.83,3.56,9.26,9.26,0,0,1-4.36,8.31,13,13,0,0,1-4.45,1.73,25.32,25.32,0,0,1-5.09.5,24.74,24.74,0,0,1-5.18-.53,13.75,13.75,0,0,1-4.51-1.76,9.68,9.68,0,0,1-4.62-8.37h8A4.62,4.62,0,0,0,1584.35,136.87Z" transform="translate(-2.52 -2.91)"/><path class="cls-21" d="M1470.78,172.56v4.12h-4.2v-4.12Z" transform="translate(-2.52 -2.91)"/><path class="cls-21" d="M1482.34,158.47a4.36,4.36,0,0,0-2.51.69,5.53,5.53,0,0,0-1.65,1.75,7.83,7.83,0,0,0-.9,2.38,13.26,13.26,0,0,0-.26,2.57,12.72,12.72,0,0,0,.26,2.5,7.78,7.78,0,0,0,.86,2.31,5,5,0,0,0,1.6,1.69,4.43,4.43,0,0,0,2.46.66,4.57,4.57,0,0,0,3.45-1.25,6,6,0,0,0,1.52-3.36h6a10.26,10.26,0,0,1-3.52,6.89,11.29,11.29,0,0,1-7.42,2.38,12.45,12.45,0,0,1-4.68-.86,10.49,10.49,0,0,1-3.63-2.39,11.12,11.12,0,0,1-2.33-3.67,12.85,12.85,0,0,1-.83-4.68,15.21,15.21,0,0,1,.77-4.9,11,11,0,0,1,2.26-3.91,10.28,10.28,0,0,1,3.65-2.57,12.3,12.3,0,0,1,4.92-.93,14.33,14.33,0,0,1,3.89.53,10.54,10.54,0,0,1,3.34,1.6,8.65,8.65,0,0,1,2.39,2.68,8.54,8.54,0,0,1,1.06,3.81H1487A4.19,4.19,0,0,0,1482.34,158.47Z" transform="translate(-2.52 -2.91)"/><path class="cls-21" d="M1494,160.83a10.39,10.39,0,0,1,6.06-6.2,14.08,14.08,0,0,1,9.69,0,10.33,10.33,0,0,1,6.09,6.2,14,14,0,0,1,.83,4.94,13.87,13.87,0,0,1-.83,4.92,10.76,10.76,0,0,1-2.37,3.76,10.31,10.31,0,0,1-3.72,2.39,14.39,14.39,0,0,1-9.69,0,10.36,10.36,0,0,1-3.69-2.39,10.76,10.76,0,0,1-2.37-3.76,13.65,13.65,0,0,1-.83-4.92A13.8,13.8,0,0,1,1494,160.83Zm5.67,7.6a6.9,6.9,0,0,0,.9,2.33,4.83,4.83,0,0,0,1.69,1.64,5.16,5.16,0,0,0,2.64.62,5.31,5.31,0,0,0,2.66-.62,4.89,4.89,0,0,0,1.71-1.64,7.11,7.11,0,0,0,.9-2.33,13,13,0,0,0,.26-2.66,13.31,13.31,0,0,0-.26-2.68,6.78,6.78,0,0,0-.9-2.33,4.87,4.87,0,0,0-4.37-2.29,5.06,5.06,0,0,0-2.64.64,5.13,5.13,0,0,0-1.69,1.65,6.59,6.59,0,0,0-.9,2.33,13.31,13.31,0,0,0-.26,2.68A13,13,0,0,0,1499.65,168.43Z" transform="translate(-2.52 -2.91)"/><path class="cls-21" d="M1523.9,154.39v3.07h.09a8.83,8.83,0,0,1,3-2.72,8.06,8.06,0,0,1,4-1,9.11,9.11,0,0,1,3.93.84,5.55,5.55,0,0,1,2.7,2.94,9.8,9.8,0,0,1,2.75-2.64,7.27,7.27,0,0,1,4.1-1.14,12.16,12.16,0,0,1,3.34.44,6.71,6.71,0,0,1,2.64,1.41,6.6,6.6,0,0,1,1.72,2.52,10.54,10.54,0,0,1,.61,3.76v15.21h-6.24V164.23c0-.76,0-1.48-.09-2.15a4.65,4.65,0,0,0-.48-1.76,2.91,2.91,0,0,0-1.17-1.19,4.2,4.2,0,0,0-2.08-.44,4,4,0,0,0-2.13.51,3.68,3.68,0,0,0-1.28,1.32,5.19,5.19,0,0,0-.61,1.84,13.28,13.28,0,0,0-.16,2.09v12.66h-6.24V164.36c0-.67,0-1.34,0-2a5.61,5.61,0,0,0-.37-1.82,2.82,2.82,0,0,0-1.1-1.34,4.15,4.15,0,0,0-2.27-.51,4.75,4.75,0,0,0-1.16.2,3.88,3.88,0,0,0-1.41.75,4.39,4.39,0,0,0-1.16,1.58,6.46,6.46,0,0,0-.48,2.7v13.19H1518V154.39Z" transform="translate(-2.52 -2.91)"/><path class="cls-21" d="M1558.51,173v4.08h-4.16V173Z" transform="translate(-2.52 -2.91)"/><path class="cls-21" d="M1561.33,157.73a7.5,7.5,0,0,1,2.46-2.33,10.68,10.68,0,0,1,3.37-1.25,18.93,18.93,0,0,1,3.75-.38,25.62,25.62,0,0,1,3.47.24,10.9,10.9,0,0,1,3.21,1,6.29,6.29,0,0,1,2.37,1.95,5.47,5.47,0,0,1,.93,3.32v11.82a25.32,25.32,0,0,0,.17,2.95,5.3,5.3,0,0,0,.62,2.11h-6.33a10.12,10.12,0,0,1-.29-1.08,10.4,10.4,0,0,1-.15-1.12,8.22,8.22,0,0,1-3.51,2.15,14.17,14.17,0,0,1-4.14.62,11.32,11.32,0,0,1-3-.4,6.86,6.86,0,0,1-2.46-1.23,5.84,5.84,0,0,1-1.65-2.11,7.21,7.21,0,0,1-.59-3,6.7,6.7,0,0,1,.68-3.19,5.8,5.8,0,0,1,1.76-2,8.14,8.14,0,0,1,2.46-1.12c.92-.24,1.85-.44,2.79-.59s1.86-.26,2.77-.35a16.49,16.49,0,0,0,2.42-.4,4.18,4.18,0,0,0,1.67-.77,1.67,1.67,0,0,0,.57-1.47,3.29,3.29,0,0,0-.33-1.6,2.44,2.44,0,0,0-.88-.92,3.41,3.41,0,0,0-1.28-.44,9.55,9.55,0,0,0-1.56-.11,4.73,4.73,0,0,0-2.9.79,3.54,3.54,0,0,0-1.23,2.63h-6.24A7.28,7.28,0,0,1,1561.33,157.73Zm12.33,8.81a10.85,10.85,0,0,1-1.28.33c-.45.09-.93.16-1.42.22s-1,.13-1.5.22a9.3,9.3,0,0,0-1.38.35,4.14,4.14,0,0,0-1.19.59,2.76,2.76,0,0,0-.81.95,3,3,0,0,0-.31,1.45,2.87,2.87,0,0,0,.31,1.4,2.32,2.32,0,0,0,.83.9,3.35,3.35,0,0,0,1.23.46,7.67,7.67,0,0,0,1.45.14,5.52,5.52,0,0,0,2.86-.62,4.12,4.12,0,0,0,1.49-1.47,4.69,4.69,0,0,0,.6-1.74,12.51,12.51,0,0,0,.11-1.4V166A3,3,0,0,1,1573.66,166.54Z" transform="translate(-2.52 -2.91)"/><path class="cls-21" d="M1598.24,177.11v-3.17h-.13a7.08,7.08,0,0,1-3.07,2.86,9.18,9.18,0,0,1-3.87.88,10.91,10.91,0,0,1-4.11-.66,5.94,5.94,0,0,1-2.53-1.87,7.45,7.45,0,0,1-1.29-2.94,18.27,18.27,0,0,1-.38-3.85v-14h6.24v12.83a8.06,8.06,0,0,0,.88,4.2,3.42,3.42,0,0,0,3.12,1.38,4.32,4.32,0,0,0,3.69-1.52c.76-1,1.15-2.67,1.15-5V154.39h6.24v22.72Z" transform="translate(-2.52 -2.91)"/><rect class="cls-22" x="1409.67" y="102.62" width="12.88" height="13.51" rx="1.91"/><rect class="cls-23" x="1409.67" y="162.01" width="12.88" height="13.51" rx="1.91"/><rect class="cls-24" x="1382.49" y="137.67" width="12.88" height="13.51" rx="1.91" transform="translate(1241.99 1530.44) rotate(-90)"/><rect class="cls-25" x="1441.89" y="137.67" width="12.88" height="13.51" rx="1.91" transform="translate(1301.39 1589.84) rotate(-90)"/><rect class="cls-26" x="1391.19" y="157.45" width="12.88" height="13.51" rx="1.91" transform="translate(2267.28 1265.67) rotate(-135)"/><rect class="cls-27" x="1433.19" y="115.45" width="12.88" height="13.51" rx="1.91" transform="translate(2368.67 1223.67) rotate(-135)"/><rect class="cls-28" x="1433.19" y="157.45" width="12.88" height="13.51" rx="1.91" transform="translate(2571.19 -740.58) rotate(135)"/><rect class="cls-29" x="1391.19" y="115.45" width="12.88" height="13.51" rx="1.91" transform="translate(2469.8 -782.57) rotate(135)"/><path d="M790.67,22.84l-4.54,3,1.55,1.33V44.8a2.82,2.82,0,0,1-3.11,2.66h-.77v-22L779.91,23,775,26.16l.22.45s.88-.56,1.11-.67c0,0,1.77,1.67,1.77,3.22V47.35c-2,.55-4,2.21-4,5.87a4.74,4.74,0,0,0,4.1,4.33,24.22,24.22,0,0,0,5.66-.44,15.15,15.15,0,0,1,3.32-.23,4.35,4.35,0,0,1,3.44,1.22l.45.45a4.35,4.35,0,0,0,1-2.55,4.06,4.06,0,0,0-2.1-3.77,6.94,6.94,0,0,0-3.66-.67,5.72,5.72,0,0,0-1.11.11,17.07,17.07,0,0,1-2.55.22c-1.22.11-2.55.34-3.44.45a5.78,5.78,0,0,1-1.11.11,2.37,2.37,0,0,1-1.55-.56,1.3,1.3,0,0,1-.45-1.11c.12-1.55,2.11-2.21,2.67-2.32h.66a36.14,36.14,0,0,0,6.54.66,8.33,8.33,0,0,0,2.78-.55A7.22,7.22,0,0,0,791.23,47a6.15,6.15,0,0,0,1.55-1.88,4.89,4.89,0,0,0,.66-2.55V24.83a33.81,33.81,0,0,0-2.77-2" transform="translate(-2.52 -2.91)"/><path class="cls-30" d="M793.22,24.94l1.67-1" transform="translate(-2.52 -2.91)"/><path d="M833.81,44.57l-1,.67s-.77-.67-.88-.78V25.06l-3.33-2.22-6.1,4-.22-.33a6.65,6.65,0,0,0-2.66-3.44l-5.77,3.88.22.33a6.59,6.59,0,0,1,1-.55,7.11,7.11,0,0,1,1.55,3V44.46l-1.55,1.33,4.44,3,4.43-2.89-1.55-1.33V28.27l1.55-1,2.22,2.44v15.2c0,1.77,1.44,3.1,2.44,3.88L834,45.24l-.22-.67" transform="translate(-2.52 -2.91)"/><path class="cls-30" d="M831.59,25.28l1.56-1M715.48,45.68l1.56-1" transform="translate(-2.52 -2.91)"/><path d="M727.24,44.8s-1.44.88-1.67,1l-3.21-2.33v-7.2l7.87-5.33-4.54-8.31-9.43,6.21V44.91c1.77,1.22,5.65,3.55,5.65,3.55L727.24,45Zm-4.77-18.3,3.66,6.32-3.66,2.44V26.5" transform="translate(-2.52 -2.91)"/><path class="cls-30" d="M834.92,45.79l1.55-1" transform="translate(-2.52 -2.91)"/><path d="M957.91,23.5s-4,2.66-4.77,3.11a9.07,9.07,0,0,0-2.88-3.88l-5.55,3.66.22.33a9.09,9.09,0,0,0,.78-.56l.33.23c.67.66,1,1.11,1,1.44V43.46l-1.66,1.34,4.54,3.54s4.88-3.43,4.77-3.32l-1.77-1.56V28.05l1-.67,2.22,2.89s-.22.33-.33.55a3.78,3.78,0,0,0-.89,2.22c0,.33.45,1.33,1.11,1.33h.11a3.21,3.21,0,0,0,1-.22l.22-.11h-.22a6.1,6.1,0,0,1-.78-.33h-.11a1.85,1.85,0,0,1-.55-1,3.33,3.33,0,0,1,1-2,26.09,26.09,0,0,1,3.77-3.21l-2.55-4" transform="translate(-2.52 -2.91)"/><path class="cls-30" d="M1157.19,26.72l1.55-1m-17.3,20,1.56-1" transform="translate(-2.52 -2.91)"/><path d="M769.6,43.46A32,32,0,0,0,760,38.92h-.11l3.55-5.32c4.55,1,7.65,3.43,7.65,6.09A6.17,6.17,0,0,1,769.6,43.46Zm-8.21-17.3c-.66-.11-2.66-.44-3.1-.55-1.66-.33-9.76-2.77-9.76-6.32,0-4.1,5.21-4.1,7.76-4.1.56,0,6.44.55,9.32,4.32C765.5,19.73,762.06,25.06,761.39,26.16Zm17.75-5.43a3.1,3.1,0,0,0,.89-1.66,2.33,2.33,0,0,0-.56-1.44,1.93,1.93,0,0,0-1.66-.67h-.45c-1.77,0-3.66,1.11-5.65,3.11a21.46,21.46,0,0,0-3.55,4.65c-.89,1.44-1.33,2.11-1.55,2.44a32.81,32.81,0,0,1-4.22-.77c.56-1,2.33-4,4.33-6.88a48.78,48.78,0,0,1,4.1-5,1.52,1.52,0,0,1,.44-.33c.12-.11.34-.11.34-.22s-.22-.34-.22-.34a.41.41,0,0,0-.34.11c-.11.12-.33.12-.55.12s-.67-.23-1.22-.78a13.8,13.8,0,0,0-9.21-3.55c-8.42,0-13.41,7.1-13.3,11.87,0,3,.55,6.21,2.1,7.54s4,2.44,8.43,3.44l.33.11-.66.77a5.87,5.87,0,0,1-4.22,2,3.67,3.67,0,0,1-2.55-.89h-.11a10.21,10.21,0,0,0,.78,1.22,2.12,2.12,0,0,0,1.33.89,4.22,4.22,0,0,0,1.55-.11,8.85,8.85,0,0,0,3.77-2.66l1-1.11,3.11.55c.33.11.66.11,1,.22l-1.33,2c-1.66,2.44-2.21,3.22-2.21,3.22a12.56,12.56,0,0,1-1.45-.23,21.77,21.77,0,0,0-4.32-.22c-3.88,0-9.09,1.33-12.31,4.55a9.47,9.47,0,0,0-1.66,2.11A8,8,0,0,0,738.22,49c0,1.89,1.22,4.21,4.88,4.21,4.77,0,9-4.54,11.2-6.87l.33-.45c.67-.66,1-1.22,1.22-1.44a41,41,0,0,1,10.31,4.77A50.41,50.41,0,0,0,771,42.91c1.11-1.66,3.66-5.43,3.77-8.32s-2.55-6.21-7.43-7.21a11.51,11.51,0,0,1,1.22-1.88c2-3.11,3.77-6.32,7.66-6.32a2.72,2.72,0,0,1,2.88,1.55Zm-28.5,28.06a22.45,22.45,0,0,1-2.77,2A10.12,10.12,0,0,1,745,51.89a5.2,5.2,0,0,0-.77.23,4.62,4.62,0,0,1-1.22.11h-.56c-2-.23-3.1-1.33-3.1-3,0-4.43,7.43-5.77,10.09-5.77H750a23.37,23.37,0,0,1,4.55.56h.55a30.37,30.37,0,0,1-3.55,3.88,3.39,3.39,0,0,1-.88.89m-56-10.87c-3.43,4.21-6.54,5.54-7,5.66v-22c3.88-.22,6.65-2.44,6.65-6.1a5.43,5.43,0,0,0-.33-1.66,5.25,5.25,0,0,1-4.1,1.77c-2.78,0-5.88-.89-9.1-1.77a36.86,36.86,0,0,0-10.31-2c-5,.11-10.76,2.44-10.76,9a10.83,10.83,0,0,0,5.55,8.76h.11a12,12,0,0,0-.89,3.88c0,6.33,3.88,15.86,15,15.86a14.9,14.9,0,0,0,7.32-1.77,15.69,15.69,0,0,0,4.66-3.88A19.22,19.22,0,0,0,694.63,37.92Zm-18.29,5.21a2.05,2.05,0,0,0,.44-.33c3.66-2.44,5.43-4.66,5.43-6.88V21.06a17.25,17.25,0,0,0,4.44.56V43.91A14.05,14.05,0,0,1,676.34,43.13Zm.33-3.66a6.48,6.48,0,0,1-1.11,3.22l-.33-.22c-3.77-2.44-5.66-7.21-5.88-12.31-.22-3.66,1.77-8.54,4.55-11.54a15.13,15.13,0,0,1,2.66.89v20ZM673.12,18.4a33.81,33.81,0,0,0-7.54,10.65l-.22-.11c-1.67-.78-2.44-2.89-2.44-4.66-.22-4.33,2.88-6.21,7-6.21a19.23,19.23,0,0,1,3.22.33m314,4.22c-.11.11-5.43,3.66-5.43,3.66l.22.44a8.47,8.47,0,0,0,.89-.56l.33.23c.67.66.89,1.11.89,1.44V45.46l2.88,3,5.55-3-.45-.55-.77.44-1.33-1.44V25.06s-2.67-2.33-2.78-2.44m-3.21-6.21,3.55-2.78,3.1,3L987,19.18l-3.1-2.77M865.31,22.73l-4.55,3,1.55,1.33V44.68a2.82,2.82,0,0,1-3.1,2.67h-.78v-22l-3.88-2.55-5,3.21.22.45s.89-.56,1.11-.67c0,0,1.77,1.67,1.77,3.22V47.57c-2,.55-4,2.11-4,5.76a4.74,4.74,0,0,0,4.11,4.33,24.12,24.12,0,0,0,5.65-.44,22.94,22.94,0,0,1,3.33-.34,4.38,4.38,0,0,1,3.44,1.22l.44.45a4.36,4.36,0,0,0,1-2.55,4.07,4.07,0,0,0-2.11-3.77,6.94,6.94,0,0,0-3.66-.67,5.78,5.78,0,0,0-1.11.11,16.83,16.83,0,0,1-2.55.22c-1.33.11-2.55.34-3.44.45a5.66,5.66,0,0,1-1.11.11,2.68,2.68,0,0,1-1.66-.56,1.49,1.49,0,0,1-.55-1.11c.11-1.55,2-2.21,2.66-2.32H854a35.92,35.92,0,0,0,6.54.66,8.83,8.83,0,0,0,2.77-.55A7.12,7.12,0,0,0,865.75,47a6,6,0,0,0,1.55-1.88,4.81,4.81,0,0,0,.67-2.55V24.83c0-.33-2.66-2.1-2.66-2.1m186.08,11.09a4.16,4.16,0,0,1,1.22.11.9.9,0,0,1,.56.55c.11.11.11,5.66.11,5.66A3.25,3.25,0,0,1,1053,42a13.35,13.35,0,0,0,5.21-4.54c.89-1.67.78-5.1.66-8.65-.11-4.11-.22-8.65,1.11-12.09a19.7,19.7,0,0,0-3.66,3,10.19,10.19,0,0,0-2.32,3,17.57,17.57,0,0,0-.67,5.76c-6.32.67-7.54,3.55-7.43,6.1,0,.11.11.56.11.89l.11.33c1.22-1.55,3-2,5.32-2M1046,16.29c.22,0,1.33.23,3.77.78,1.33.33,3,.67,3.22.67h1.33c1.33,0,4.21-1.67,7.65-4.55l.55-.44a7.28,7.28,0,0,1-2.77.66,19.36,19.36,0,0,1-5-1.11,18,18,0,0,0-5.65-1.22c-3.89,0-6.44,2.33-6.44,5.77a4.16,4.16,0,0,0,.89,2.44,3.27,3.27,0,0,1-.22-1c.11-1.22,1-2,2.66-2m29-6.87a5.55,5.55,0,0,1,2.66,2.44c-1.89,1.33-4.33,3.21-5.1,3.66-1.45-1.66-3.33-3.88-4.77-4a5.48,5.48,0,0,0-1.22.11,1,1,0,0,0-.45.88V25.39l5.44-3.44,4.32,4.33V40.69c0,4.11-2.88,8.43-8.54,12.2a17.8,17.8,0,0,0,8.65.22c-2.1,3.11-4.43,4.66-7.09,4.66a5,5,0,0,1-1.56-.33A8.84,8.84,0,0,0,1062,57a22.85,22.85,0,0,0,5.77-6.32,13.74,13.74,0,0,0,2-7.09V29.49l-3.88-2.77v1.55c0,3.66,0,6.88-.77,8.54-.67,1.33-3.11,3.44-5.22,4.55a3.72,3.72,0,0,0,.34-1.89V21.17c0-.33.11-1.88.11-2.21a9.4,9.4,0,0,1,4.54-7.43c2.78-2,5.11-2.78,6.88-2.78a7.09,7.09,0,0,1,3.1.67M714.48,45.79c-.33.34-3.1,2.22-3.88,2.89a9.38,9.38,0,0,0-2.55,2.55,5.52,5.52,0,0,0-.88,2.88,1.56,1.56,0,0,0,.33,1,3.33,3.33,0,0,0,2.11.78h.66a1.57,1.57,0,0,0,.78-.12v.12a1.75,1.75,0,0,1-1,1,3.49,3.49,0,0,1-1.44.45,2.6,2.6,0,0,1-2.55-2.78c0-1.66,2.1-4.54,3.43-5.87,0,0-2.44-2-2.44-3.55V29.27l-2.21-2.44-1.56,1V44.24c.11.11,1.56,1.33,1.56,1.33l-4.44,3-4.55-3,1.56-1.33V17.29c0-1.33-.11-3.21-.56-3.77a2.78,2.78,0,0,0-1.11-.77A2.26,2.26,0,0,1,698.07,11a4.1,4.1,0,0,1,1.78.45c.44-.89,1.33-2.44,3.1-2.44a3,3,0,0,1,1.44.55c-1.33,1.44-1.22,4.66-1.22,6.54V26.83l6.1-4,3.55,2.33V42.8a5.31,5.31,0,0,0,1.66,3M1140,44.57l.22.34-5.54,3.55-4.33-3,1.45-1.33V16.63c0-1.33-.11-3.22-.56-3.77a2.69,2.69,0,0,0-1.11-.78,2.25,2.25,0,0,1,2.33-1.77,3.73,3.73,0,0,1,1.66.44c.78-.67,1.45-1.89,3.33-1.89a3,3,0,0,1,1.44.56,5.59,5.59,0,0,0-1.11,3.66c-.11,7.54,0,31.38,0,31.38l1.22,1.11,1-1" transform="translate(-2.52 -2.91)"/><path class="cls-30" d="M712.6,25.28l1.55-1m97.59,2.33,1.56-1M796,45.46l1.55-1m70.31-19.63,1.55-1m72.86,2.44,1.55-1M926.52,45.9l1.56-1m61.43-19.74,1.56-1m-8.21,22,1.55-1m45.47-18.74,1.55-1m94.6.22,1.55-1" transform="translate(-2.52 -2.91)"/><path d="M1142.55,12.3v7.43c1.11,1.11,3.77,3.55,5,4.66a13.8,13.8,0,0,1-5.1,2.66c-.11,0,.22.56.22,1.11V44.91l5,3.77a26.85,26.85,0,0,1,9.76-4.22v-18Zm6.32,13.31,3,2.88V45.13l-3.44-2.44V26.05l.44-.44m-210-3a43.57,43.57,0,0,1-11.31,4.65c-.11,0,.22.56.22,1.11V45.13l5,3.77a26.85,26.85,0,0,1,9.76-4.22V26.05Zm-5,3.54L937,29.49V45.13l-3.44-2.44V26.39l.33-.23m-136.74-14v7.43c1.11,1.11,3.77,3.55,5,4.66a14.73,14.73,0,0,1-5.1,2.66c-.11,0,.23.56.23,1.11V44.8l5,3.77A26.58,26.58,0,0,1,812,44.35v-18Zm6.21,13.31,3,2.88V45l-3.44-2.44V25.94l.44-.44" transform="translate(-2.52 -2.91)"/><path class="cls-31" d="M1126.81,45.35l1.55-1" transform="translate(-2.52 -2.91)"/><path class="cls-30" d="M954.58,45l1.11-.78" transform="translate(-2.52 -2.91)"/><path d="M1126.81,44.8a2.59,2.59,0,0,1-.56-1.45v-18c-.33-.33-3-2.77-3-2.77l-4.44,3.66L1115.38,23,1111,26.5l3.1,3.44c-.44.66-1.77,3.21-.22,5.21a6.33,6.33,0,0,0,.44.55l-.44.11a7.49,7.49,0,0,0-4.88,6.32c0,1.89.89,5.11,3.55,6.44l7.87-4.88v.55a8.78,8.78,0,0,0,2.22,4.44l4.66-3.33Zm-6.66-2.33-3.77,2.33a6.28,6.28,0,0,1-2.55-2.55,6.94,6.94,0,0,1-.78-3.22,3.47,3.47,0,0,1,.56-1.89,3.62,3.62,0,0,1,.66-.66c.23-.11.56-.22.78,0,1.44,1.11,3,1.22,5,1.22l.11,4.77Zm-1.33-15.31,1.22,1.33v8.32c-2.11.11-3.77-.33-4.55-1.11-3.21-3-.33-6.87,3.33-8.54m-138,17.41-1,.67s-.78-.67-.89-.78V25.06l-3.33-2.22-6.1,4.1-.22-.33a7.7,7.7,0,0,0-2.66-3.55l-5.77,3.88.22.44,1-.66a7.67,7.67,0,0,1,1.55,3V44.46l-1.55,1.33,4.44,3L971,45.9l-1.55-1.33V28.27l1.55-1,2.22,2.44v15.2c0,1.77,1.44,3.1,2.44,4l5.43-3.55-.22-.78" transform="translate(-2.52 -2.91)"/><path class="cls-30" d="M978.65,25.28l1.66-1" transform="translate(-2.52 -2.91)"/><path d="M1012.58,44.57l-1,.67-.89-.78V25.06l-3.32-2.22-6.1,4.1-.22-.33a7.7,7.7,0,0,0-2.66-3.55l-5.77,3.88.22.44,1-.66a7.81,7.81,0,0,1,1.55,3V44.46l-1.55,1.33,4.43,3,4.44-2.89-1.55-1.33V28.27l1.55-1,2.22,2.44v15.2c0,1.77,1.44,3.1,2.44,4l5.43-3.55-.22-.78" transform="translate(-2.52 -2.91)"/><path class="cls-30" d="M1010.47,25.28l1.56-1" transform="translate(-2.52 -2.91)"/><path d="M846.9,44.8l-1.67,1L842,43.46v-7.2l7.87-5.33-4.43-8.31L836,28.83V44.91c1.77,1.22,5.66,3.55,5.66,3.55L847,45l-.11-.22Zm-4.77-18.3,3.66,6.32-3.66,2.44V26.5" transform="translate(-2.52 -2.91)"/><path class="cls-30" d="M1077.9,45.79l1.55-1" transform="translate(-2.52 -2.91)"/><path d="M1090,44.91l-1.67,1s-3.1-2.32-3.21-2.32V36.37L1093,31l-4.43-8.31-9.43,6.21V45c1.77,1.22,5.66,3.55,5.66,3.55l5.43-3.44Zm-4.88-18.3,3.66,6.32-3.66,2.44V26.61m21.51-3.11s-4,2.66-4.77,3.11a9,9,0,0,0-2.88-3.88l-5.54,3.66.22.33a9.2,9.2,0,0,0,.77-.56l.34.23c.66.66,1,1.11,1,1.44V43.46l-1.66,1.34,4.55,3.54s4.88-3.43,4.77-3.32l-1.78-1.56V28.05l1-.67,2.22,2.89s-.22.33-.33.55a3.71,3.71,0,0,0-.89,2.22c0,.33.44,1.22,1.11,1.22h.11a3.34,3.34,0,0,0,1-.22l.22-.11h-.22a5.07,5.07,0,0,1-.78-.33H1105a1.86,1.86,0,0,1-.56-1,3.39,3.39,0,0,1,1-2,26.39,26.39,0,0,1,3.77-3.22l-2.55-3.88" transform="translate(-2.52 -2.91)"/><path class="cls-30" d="M1103.18,45l1.11-.78" transform="translate(-2.52 -2.91)"/><path d="M1020.56,26.39l4,3.66V43.46l-1.22,1h-.11A6.43,6.43,0,0,1,1020,40V26.72ZM1030.21,42V26.28s-2.88-2.55-4-3.77c-1,.77-6.76,3.32-12.31,5,.22.22.56.66.56.66v9.76a18.61,18.61,0,0,0,.55,5.43,7.84,7.84,0,0,0,3.55,4.44l.44.22-9.09,7.65a3.46,3.46,0,0,1,.11,1,3,3,0,0,0,.78-.22,7.58,7.58,0,0,1,3.54-.78c2.44,0,5.11,1.67,6.44,2.44a2.39,2.39,0,0,1,.55.34c.78-.23,3.66-2.44,6.21-4.77A35.68,35.68,0,0,0,1031.1,50a5.62,5.62,0,0,0,1.55-2.89,3.66,3.66,0,0,0-1.22-2.32A5,5,0,0,1,1030.21,42ZM1026,54.22l-.78-.44c-1.77-1-3.55-2-5.54-2h-.56c-.66.11-1.66.22-2.55.45l-.33-.67L1024,45a13.93,13.93,0,0,1,2.66,3.1,5.11,5.11,0,0,1,.78,2.89,4.14,4.14,0,0,1-1.44,3.21M887.71,20.51a3.24,3.24,0,0,1-1.11-2.11c0-1.44,1.22-3,3.55-3a23.89,23.89,0,0,1,3.21.55c.67.11,1.45.33,1.56.33,1.88,0,4.88-2,6.76-4l.11-.11h-.11a11,11,0,0,1-4.1-1,9.9,9.9,0,0,0-4.22-1c-3.66,0-7.87,2.77-7.87,6.54,0,.77.78,3.1,2.22,3.77m8.76,23.62a10.71,10.71,0,0,1-3.33-.33,22.78,22.78,0,0,0-2.44-.45h-1.11c-4.32,0-5.76,3.89-5.76,6.21,0,4.11,1.88,8.54,7.21,8.54,1.55,0,5-.88,5-4.1,0-.11-.34-2-1.22-2h-.67c.11.56.55,1.45.55,1.78,0,2.11-2.88,3.21-4.1,3.21-2.88,0-5.54-1.66-5.54-5.21,0-1.88,1-4,3.21-4,2,0,4.44,1.22,6.32,1.22,4.44-.11,5.33-3,5.44-9-.22.88-1.78,4.1-3.55,4.1m29.17.11a2.16,2.16,0,0,1-.89.44,2,2,0,0,1-.56-.22,4,4,0,0,1-1.66-3.21V18a4.4,4.4,0,0,1,.89-2.77v-.12a21,21,0,0,1-2-1.66c-1.33-1.11-3.21-2.55-4.21-3.33,0,0-5.33,4.33-5.66,4.66l-2.44-2c-1-.89-2.55-2.11-3-2.44-.78.44-11.87,9.87-11.87,9.87v7.87h-.33c-6.21.78-6.66,5.55-6.66,7,0,.22.23.88.34,1.44v.11l.11-.11a7.33,7.33,0,0,1,1.66-2,5.35,5.35,0,0,1,2.44-1c2-.22,2.11-.11,2.22,0l.11.12V42a2.34,2.34,0,0,1-.44,1.67c2.1-1.11,4.65-3.22,5.32-4.66.89-1.78.78-1.78.78-5.43v-.67h5.1v9.76l-1.78,1.88,6.1,4.11,5.66-4.22L914.1,44a1.58,1.58,0,0,0-.33.22.85.85,0,0,1-.56.22c-.55,0-2.32-1.55-2.55-1.88V32.93h5.55v9.2a7.78,7.78,0,0,0,.66,3.33,11,11,0,0,0,3.22,3.22c.56-.34,5.77-4.11,5.77-4.11l-.22-.33ZM905.12,27.61H900V17l2.11-1.77,3,2.55v9.87Zm11.53,0h-5.76V16.85l2-1.66,3.66,3.43.11,9M1057.72,41.8a12.24,12.24,0,0,0-11.43,11.76c0,2.33.89,5.76,4.22,5.76,1.44,0,2.44-.66,2.44-2.55a2.86,2.86,0,0,0-.34-1.33c-.22.67-1.33,2.11-2.44,2.11-2.44-.11-3.1-2-3.1-3.66,0-3.55,2.55-7.65,6.88-7.65,2.32,0,4.65,1,7,3.66,0,0,5-3.66,5-3.77-2.77-3.55-4.54-4.44-8.2-4.33" transform="translate(-2.52 -2.91)"/></svg>