<svg width="1443" height="53" viewBox="0 0 1443 53" fill="none" xmlns="http://www.w3.org/2000/svg">
<path d="M0.00369662 24.0749C1.96099 23.9863 2.39676 23.4508 2.39676 22.3613V8.08411C2.39676 7.02422 1.96099 6.44441 0.00369662 6.37055V5.87939H13.3798L13.4979 11.7107L12.944 11.7402C11.6404 8.08412 10.8279 6.56999 8.01383 6.56999H5.39919V14.6392H6.42951C8.20215 14.6392 9.04418 14.1185 9.72369 11.201H10.2481V18.7458H9.72369C9.04418 15.8284 8.20215 15.3077 6.42951 15.3077H5.39919V23.9124H7.95472C11.2489 23.9124 12.2793 22.2431 13.5977 18.3728L14.1664 18.4024L14.0335 24.6251H0L0.00369662 24.0749Z" fill="#231F20"/>
<path d="M16.0205 24.0749C17.9815 23.9863 18.4173 23.4508 18.4173 22.3613V8.08411C18.4173 7.02422 17.9815 6.44441 16.0205 6.37055V5.87939H23.7758V6.37055C21.7299 6.45918 21.4381 6.99467 21.4381 8.08411V23.9161H23.0926C26.2981 23.9161 27.4024 22.6678 28.8981 18.299L29.463 18.3581L29.2452 24.5956H16.0389V24.0749H16.0205Z" fill="#231F20"/>
<path d="M30.8663 24.0749C32.8827 23.9863 33.3185 23.4508 33.3185 22.3613V8.08411C33.3185 7.02422 32.8827 6.44441 30.8663 6.37055V5.87939H38.7177V6.37055C36.7013 6.44441 36.2803 7.02422 36.2803 8.08411V22.3613C36.2803 23.4692 36.6865 24.001 38.7029 24.0749V24.5956H30.8516V24.0749H30.8663Z" fill="#231F20"/>
<path d="M44.1575 24.0749C46.2329 23.9863 46.798 23.4508 46.798 22.3613V6.53307H45.9855C44.187 6.53307 43.0311 8.1986 41.6351 11.8695L41.0664 11.8436L41.2141 5.87939H55.3473L55.5061 11.8436L54.9411 11.8695C53.6042 8.36109 52.4594 6.53307 50.587 6.53307H49.7745V22.3613C49.7745 23.4692 50.3396 24.001 52.415 24.0749V24.5956H44.1575V24.0749Z" fill="#231F20"/>
<path d="M57.6111 24.0749C59.5684 23.9863 60.0042 23.4508 60.0042 22.3613V8.08411C60.0042 7.02422 59.5684 6.44441 57.6111 6.37055V5.87939H70.9872L71.1054 11.7107L70.5514 11.7402C69.2478 8.08412 68.4353 6.56999 65.6212 6.56999H63.0066V14.6392H64.037C65.8096 14.6392 66.6479 14.1185 67.3311 11.201H67.8555V18.7458H67.3311C66.6479 15.8284 65.8096 15.3077 64.037 15.3077H63.0066V23.9124H65.5621C68.8563 23.9124 69.8867 22.2431 71.2051 18.3728L71.7738 18.4024L71.6409 24.6104H57.6074V24.1044L57.6111 24.0749Z" fill="#231F20"/>
<path d="M0.0327839 45.7824C1.99008 45.6937 2.42585 45.1583 2.42585 44.0688V29.7916C2.42585 28.7317 1.99008 28.1519 0.0327839 28.0781V27.5869H7.11231C12.9879 27.5869 15.9054 31.4313 15.9054 36.6274C15.9054 41.6167 13.3941 46.292 7.41142 46.292H0.0253906L0.0327839 45.7824ZM6.80576 45.6236C11.1894 45.6236 12.6112 43.4447 12.6112 36.8305C12.6112 30.124 10.6539 28.2553 6.75036 28.2553H5.41349V45.6384H6.80576V45.6236Z" fill="#231F20"/>
<path d="M25.2376 39.3529H19.9528L19.1699 41.8346C18.243 44.7225 18.4314 45.4057 20.5918 45.812V46.3068H15.1963V45.8046C16.8064 45.4353 17.4121 44.4677 18.2984 41.8272L23.0993 27.1733H24.6504L29.4513 43.2232C30.0016 45.0697 30.3782 45.5128 32.1509 45.8083V46.3031H24.3956V45.8046C26.5744 45.6753 26.8773 45.1214 26.4452 43.5888L25.2117 39.364L25.2376 39.3529ZM25.0197 38.6733L22.7817 30.7482H22.6673L20.1708 38.6733H25.0197Z" fill="#231F20"/>
<path d="M33.6396 45.7824C35.6597 45.6937 36.0918 45.1583 36.0918 44.0688V29.7916C36.0918 28.7317 35.6597 28.1519 33.6396 28.0781V27.5869H41.491V28.0781C39.4746 28.1667 39.0684 28.7317 39.0684 29.7916V44.0688C39.0684 45.1767 39.4746 45.7085 41.491 45.7824V46.3068H33.6396V45.7824Z" fill="#231F20"/>
<path d="M44.2168 45.7824C46.1741 45.6937 46.6099 45.1583 46.6099 44.0688V29.7916C46.6099 28.7317 46.1741 28.1519 44.2168 28.0781V27.5869H51.9499V28.0781C49.904 28.1667 49.616 28.7022 49.616 29.7916V45.6236H51.2815C54.4908 45.6236 55.5913 44.3754 57.0869 40.0065L57.652 40.0656L57.4341 46.3068H44.2316V45.7824H44.2168Z" fill="#231F20"/>
<path d="M67.4344 31.3427C68.5202 29.1269 68.4205 28.4585 66.3265 28.0522V27.5869H71.7959V28.0522C70.2743 28.3846 69.5801 28.9496 68.3872 31.3427L65.0635 38.0197V44.0688C65.0635 45.1767 65.4993 45.7085 67.5157 45.7824V46.3068H59.668V45.7824C61.7139 45.6937 62.1202 45.1583 62.1202 44.0688V38.2967L58.1133 30.0981C57.4338 28.6763 57.0054 28.3551 55.5762 28.0522V27.5869H63.121V28.0522C60.9716 28.2406 60.7833 28.8905 61.4074 30.1535L64.6278 37.1038L67.4455 31.3427H67.4344Z" fill="#231F20"/>
<path d="M172.145 33.6415H177.05L179.675 18.5999H174.775L173.807 23.988H169.557L170.524 18.5999H165.624L162.994 33.6415H167.898L168.885 28.0134H173.135L172.145 33.6415ZM182.453 18.574L180.975 26.9424C180.85 27.5623 180.787 28.1933 180.787 28.8258C180.787 33.2574 184.665 33.9333 186.995 33.9333C191.877 33.9333 193.982 32.312 194.75 27.9321L196.394 18.5555H191.475L190.079 26.4217C189.632 28.8812 189.314 30.1664 187.494 30.1664C186.301 30.1664 185.725 29.5349 185.725 28.2312C185.74 27.5979 185.814 26.9674 185.946 26.3478L187.364 18.5555H182.453V18.574ZM222.285 33.6415H227.186L227.877 29.7638H230.189C234.458 29.7638 236.836 27.4557 236.836 23.242C236.836 20.2876 234.786 18.5814 231.186 18.5814H224.922L222.285 33.6415ZM229.926 26.0561H228.512L229.162 22.5145H230.488C231.566 22.5145 232.146 23.0536 232.146 24.0434C232.146 25.2842 231.308 26.0487 229.926 26.0487V26.0561ZM246.342 18.2564C241.009 18.2564 237.822 21.7057 237.822 27.4889C237.822 31.5143 240.359 33.9369 244.606 33.9369C249.939 33.9369 253.126 30.4877 253.126 24.7044C253.144 20.6421 250.611 18.2527 246.342 18.2527V18.2564ZM244.905 30.0741C243.639 30.0741 242.893 29.1619 242.893 27.633C242.893 27.0761 242.949 26.5207 243.059 25.9748C243.428 23.999 244.067 22.1895 246.061 22.1895C247.328 22.1895 248.074 23.1053 248.074 24.6306C248.073 25.1886 248.018 25.7453 247.908 26.2924C247.542 28.2312 246.907 30.0556 244.913 30.0556L244.905 30.0741ZM270.188 33.6415H275.088L277.027 22.6252H280.72L281.425 18.5999H268.869L268.16 22.6252H272.075L270.188 33.6415ZM262.063 24.1542C260.519 23.6704 259.884 23.4636 259.884 22.7397C259.884 22.2523 260.202 21.6761 261.132 21.6761C261.447 21.6706 261.756 21.7599 262.02 21.9325C262.283 22.105 262.489 22.3528 262.61 22.6437L266.945 21.4546C266.443 19.3311 264.615 18.249 261.465 18.249C255.537 18.249 255.072 22.219 255.072 23.4192C255.072 25.8825 256.376 27.3892 259.208 28.1722C259.947 28.379 260.811 28.6042 260.811 29.4241C260.811 30.0741 260.327 30.484 259.489 30.484C259.09 30.4906 258.699 30.3767 258.366 30.1573C258.034 29.9379 257.775 29.6231 257.624 29.2542L253.359 30.4286C253.828 32.6665 255.944 33.9333 259.23 33.9333C261.749 33.9333 265.959 33.2611 265.959 28.715C265.959 26.4401 264.692 24.9482 262.063 24.1468V24.1542Z" fill="black"/>
<path d="M160.254 33.6418L162.902 18.6002H154.796V33.6418H160.254ZM283.534 18.6002L280.905 33.6418H289.03V18.5928L283.534 18.6002Z" fill="#0DBE98"/>
<path d="M202.229 29.2101H206.351L207.019 25.4248H202.902L203.367 22.6291H209.128L209.837 18.5853H199.175L196.546 33.6417H201.447L202.229 29.2101ZM215.074 29.2101H219.21L219.882 25.4248H215.764L216.23 22.6291H221.987L222.707 18.5742H212.034L209.412 33.6417H214.317L215.074 29.2101Z" fill="black"/>
<path d="M372.062 0H424.248V42.3183H372.062V0Z" fill="#003366"/>
<path d="M372.062 42.9058H424.248V52.1863H372.062V42.9058Z" fill="#C20017"/>
<path d="M424.248 30.2975H424.149C423.571 28.8777 422.915 27.4907 422.184 26.1429H422.827C423.333 27.1141 423.809 28.1002 424.248 29.0973V30.2975ZM372.063 5.79434C374.629 4.93358 377.274 4.32384 379.958 3.97369L380.723 0H386.923L385.531 3.60807C387.2 3.6037 388.867 3.70113 390.524 3.89982L392.455 0H399.25L396.004 4.92648C400.308 6.04004 404.407 7.83273 408.147 10.237C408.886 10.7134 409.624 11.2157 410.315 11.7364H409.329C405.193 8.82574 400.563 6.69095 395.665 5.43612L391.698 11.5924H388.847V15.7839L381.831 27.2508H379.581V31.0804L372.399 42.3183H372.17L390.265 4.43162C388.63 4.24345 386.985 4.15465 385.339 4.16572L372.111 42.3183H372.063M372.063 41.6129L379.818 4.56826C377.179 4.93214 374.582 5.55052 372.063 6.41477H372.029" fill="white"/>
<path d="M393.515 21.2685H397.326V17.7084H393.515V16.0096H398.143L397.888 12.4385H389.649V25.5117H393.53L393.515 21.2685ZM409.639 25.4748H413.808L415.71 22.2656L417.66 25.4785H421.926L417.812 18.7055L421.505 12.4606H417.28L415.688 15.1713L414.034 12.4496H409.739L413.554 18.7277L409.639 25.4748ZM404.786 25.6188C406.556 25.6436 408.263 24.9668 409.535 23.7364C410.807 22.5059 411.54 20.822 411.574 19.0527C411.503 17.2975 410.756 15.6377 409.489 14.4209C408.222 13.2041 406.534 12.5246 404.777 12.5246C403.02 12.5246 401.332 13.2041 400.065 14.4209C398.798 15.6377 398.051 17.2975 397.98 19.0527C397.994 19.931 398.181 20.798 398.53 21.6041C398.879 22.4102 399.383 23.1396 400.014 23.7507C400.645 24.3618 401.391 24.8427 402.208 25.1657C403.024 25.4888 403.897 25.6478 404.775 25.6336L404.786 25.6188ZM403.59 16.1684C403.591 15.8582 403.712 15.5605 403.928 15.337C404.143 15.1135 404.436 14.9815 404.746 14.9682C405.064 14.9745 405.369 15.1022 405.597 15.3252C405.825 15.5483 405.959 15.8499 405.972 16.1684V21.7079C405.955 22.0124 405.822 22.2987 405.6 22.5082C405.379 22.7177 405.086 22.8344 404.781 22.8344C404.476 22.8344 404.183 22.7177 403.961 22.5082C403.74 22.2987 403.607 22.0124 403.59 21.7079V16.1684ZM394.398 35.2724H398.346V32.6577H394.398V30.8703H399.199V28.0415H391.344V40.2653H399.25V37.3109H394.383L394.398 35.2724ZM411.386 28.0488L409.872 35.0434L408.394 28.0488H405.783L404.376 35.1173L402.899 28.0488H399.786L402.611 40.2727H405.451L406.843 33.256L408.276 40.2727H411.068L413.908 28.0488H411.386ZM421.693 33.5699C420.884 32.8313 419.954 32.6245 418.908 32.3291C417.675 31.9819 416.995 31.9598 416.995 31.2212C417.021 30.9658 417.146 30.7309 417.344 30.5676C417.542 30.4043 417.796 30.3259 418.052 30.3496C418.433 30.3189 418.813 30.4256 419.122 30.6505C419.432 30.8754 419.651 31.2035 419.739 31.5757L422.406 30.6894C422.165 29.7869 421.624 28.9937 420.871 28.441C420.118 27.8883 419.199 27.6092 418.266 27.65C415.481 27.65 413.775 29.3636 413.775 31.6643C413.775 33.6548 414.935 34.6372 417.254 35.3278C418.639 35.7488 419.377 35.6971 419.377 36.6056C419.377 37.0746 418.942 37.4402 418.218 37.4402C417.76 37.4935 417.3 37.3704 416.93 37.0959C416.56 36.8215 416.309 36.4163 416.227 35.963L413.302 36.6019C413.801 38.9248 415.518 40.2949 418.181 40.2949C418.828 40.3116 419.471 40.1927 420.07 39.9459C420.668 39.6992 421.209 39.33 421.656 38.862C422.326 38.1266 422.693 37.1647 422.683 36.1698C422.71 35.6897 422.635 35.2093 422.462 34.7604C422.29 34.3116 422.024 33.9045 421.682 33.5662L421.693 33.5699ZM387.555 34.194L383.913 28.1153H380.383V40.3023H383.481V33.16L387.64 40.2617H390.594V28.0747H387.577L387.555 34.194ZM377.092 47.1196C377.254 47.0919 377.42 47.1214 377.562 47.2029C377.705 47.2845 377.814 47.413 377.872 47.5664H379.615C379.504 46.7429 378.57 46.2554 377.118 46.2554C375.453 46.2554 374.396 46.994 374.396 48.1499C374.396 49.2061 375.434 49.893 377.011 49.893C378.466 49.893 379.415 49.3908 379.596 48.5303H377.883C377.783 48.859 377.513 49.0252 377.067 49.0252C376.943 49.0395 376.819 49.0253 376.702 48.9837C376.585 48.9422 376.48 48.8744 376.393 48.7855C376.307 48.6966 376.242 48.5891 376.204 48.4712C376.166 48.3533 376.155 48.2282 376.173 48.1056C376.156 47.9778 376.167 47.8477 376.206 47.7248C376.245 47.6019 376.311 47.4893 376.399 47.3949C376.487 47.3006 376.595 47.227 376.715 47.1794C376.835 47.1317 376.964 47.1113 377.092 47.1196ZM394.025 49.1138V47.8323C394.057 47.6368 394.042 47.4365 393.982 47.2478C393.921 47.0591 393.817 46.8873 393.678 46.7466C393.093 46.3946 392.411 46.2405 391.732 46.3071C390.232 46.3071 389.412 46.6764 389.242 47.4667H390.838C390.904 47.2156 391.207 47.0974 391.695 47.0974C392.182 47.0974 392.378 47.2008 392.378 47.3966V47.4778C392.378 47.74 391.724 47.6846 390.498 47.8693C389.564 48.0096 389.095 48.3567 389.095 48.9181C389.095 49.4794 389.708 49.893 390.749 49.893C391.342 49.9091 391.926 49.7512 392.43 49.4388C392.447 49.556 392.477 49.6711 392.518 49.7823H394.261V49.6567C394.106 49.5976 394.029 49.4203 394.029 49.1175L394.025 49.1138ZM392.37 48.5709C392.37 48.9402 391.953 49.147 391.37 49.147C391 49.147 390.731 48.9809 390.731 48.7482C390.731 48.5155 390.912 48.438 391.311 48.3789C391.669 48.3446 392.023 48.2803 392.37 48.1869V48.5709ZM400.177 46.3145C399.887 46.2896 399.595 46.325 399.319 46.4184C399.044 46.5119 398.79 46.6613 398.575 46.8574V46.381H396.894V49.7601H398.634V47.9431C398.634 47.3633 398.881 47.127 399.509 47.127C400.137 47.127 400.248 47.4261 400.248 48.0502V49.749H401.987V47.5332C401.965 46.6801 401.488 46.285 400.207 46.285L400.177 46.3145ZM385.132 46.3588C384.544 46.3176 383.962 46.507 383.511 46.8869V45.2472H381.768V49.8266H383.511V48.0059C383.511 47.4261 383.758 47.1898 384.386 47.1898C385.014 47.1898 385.125 47.4889 385.125 48.113V49.8081H386.868V47.4889C386.868 46.7503 386.273 46.3404 385.165 46.3404L385.132 46.3588ZM408.328 46.3145C408.038 46.2896 407.746 46.325 407.47 46.4184C407.194 46.5119 406.94 46.6613 406.725 46.8574V46.381H405.074V49.7601H406.814V47.9431C406.814 47.3633 407.065 47.127 407.689 47.127C408.313 47.127 408.428 47.4261 408.428 48.0502V49.749H410.167V47.5332C410.145 46.6801 409.665 46.285 408.38 46.285L408.328 46.3145ZM415.086 46.2776C413.48 46.2776 412.435 46.9682 412.435 48.1019C412.435 49.2357 413.498 49.8893 415.13 49.8893C416.482 49.8893 417.45 49.4573 417.741 48.7297H416.076C415.954 48.9735 415.659 49.099 415.19 49.099C414.577 49.099 414.244 48.8442 414.244 48.3604H417.812C417.819 48.2942 417.819 48.2273 417.812 48.161C417.812 46.9793 416.792 46.2739 415.13 46.2739L415.086 46.2776ZM414.155 47.7215C414.222 47.2673 414.584 47.0236 415.138 47.0236C415.692 47.0236 416.116 47.2747 416.124 47.7215H414.155ZM420.201 45.2435V49.8229H421.94V45.2435H420.201Z" fill="white"/>
<path d="M560.949 38.7868C560.949 38.0741 560.949 37.3761 560.949 36.6781C560.968 34.8833 560.997 33.0848 561.004 31.2863C561.023 28.4538 561.045 25.6212 561.034 22.7924C561.034 20.9828 560.988 19.1732 560.897 17.3637C560.853 16.8548 560.729 16.3562 560.528 15.8865C560.24 15.1478 559.586 14.9115 558.859 14.8266C558.408 14.7712 558.242 14.5274 558.393 14.088C558.416 14.0472 558.446 14.0115 558.483 13.9835C558.52 13.9555 558.562 13.9357 558.608 13.9255C561.158 13.4331 563.713 12.9579 566.271 12.5C566.299 12.4961 566.327 12.4961 566.356 12.5V21.2413L566.692 21.0825C568.811 20.0743 570.983 19.79 573.184 20.7354C575.263 21.6291 576.545 23.3205 577.198 25.4144C578.247 28.7825 578.011 32.0951 576.257 35.1972C574.938 37.5275 572.837 38.8348 570.252 39.374C568.324 39.7248 566.349 39.736 564.417 39.4073C563.372 39.2595 562.334 39.038 561.296 38.857C561.174 38.857 561.06 38.8164 560.949 38.7868ZM566.308 31.5338C566.308 32.5937 566.308 33.6535 566.308 34.7171C566.308 35.7253 566.356 36.7372 566.393 37.7454C566.393 37.9338 566.393 38.1627 566.658 38.207C567.903 38.388 569.063 38.2514 569.923 37.2136C570.261 36.8149 570.555 36.3802 570.798 35.9174C571.788 33.9896 572.076 31.8994 572.128 29.7685C572.226 28.0159 571.923 26.2641 571.241 24.6463C570.931 23.8639 570.399 23.1898 569.709 22.7075C568.697 22.0501 567.641 22.135 566.555 22.5043C566.363 22.5708 566.304 22.6447 566.304 22.8367C566.304 25.7296 566.304 28.6237 566.304 31.519L566.308 31.5338Z" fill="#005BC1"/>
<path d="M516.903 14.897C516.825 18.4238 516.755 21.9137 516.677 25.4332C517.811 25.3889 518.864 25.3778 519.912 25.2892C520.307 25.2589 520.687 25.1235 521.012 24.8968C521.336 24.6701 521.594 24.3605 521.759 24.0003C522.102 23.2949 522.339 22.5231 522.645 21.7365H523.598V30.5554H522.579C522.405 29.9793 522.269 29.4106 522.058 28.8677C521.585 27.6527 520.751 26.9473 519.373 26.9695C518.505 26.9695 517.634 26.8919 516.714 26.8439C516.714 27.2686 516.714 27.6638 516.714 28.0626C516.77 29.9571 516.792 31.8553 516.903 33.7499C516.966 34.6171 517.117 35.4758 517.353 36.3128C517.619 37.3025 518.335 37.8233 519.366 37.9304C519.831 37.9747 520.293 38.0781 520.74 38.1556C520.839 39.1786 520.839 39.1786 519.883 39.1786H507.253V38.1593C507.714 38.0633 508.191 37.9414 508.678 37.8713C509.059 37.8301 509.42 37.6775 509.715 37.4325C510.01 37.1875 510.226 36.861 510.336 36.4938C510.577 35.828 510.732 35.1343 510.798 34.4294C511.079 30.3671 511.079 26.3047 511.023 22.2424C511.005 20.7468 510.92 19.2474 510.802 17.7591C510.734 17.1045 510.59 16.46 510.373 15.8387C510.045 14.8195 509.265 14.3615 508.231 14.2618L507.249 14.1621V13.0542H528.299C528.34 15.4731 528.38 17.9031 528.421 20.3774L527.409 20.695C527.151 20.7726 527.132 20.5584 527.077 20.4033C526.721 19.236 526.187 18.1309 525.493 17.1276C525.025 16.43 524.39 15.8613 523.645 15.474C522.901 15.0867 522.07 14.8934 521.231 14.9118C519.827 14.9007 518.417 14.897 516.903 14.897Z" fill="#005BC1"/>
<path d="M525.759 29.6321C525.796 27.1356 526.498 24.6798 528.37 22.6671C529.723 21.23 531.539 20.3148 533.5 20.0819C535.228 19.8029 536.999 19.9655 538.648 20.5547C539.763 20.9566 540.771 21.6111 541.592 22.467C542.412 23.3229 543.024 24.357 543.378 25.4885C544.393 28.2325 544.373 31.252 543.323 33.9825C542.045 37.2655 539.63 39.1527 536.111 39.5811C534.463 39.8231 532.781 39.6557 531.214 39.0936C528.588 38.0965 527.033 36.1392 526.25 33.4987C525.907 32.2391 525.741 30.9376 525.759 29.6321ZM538.445 30.5923H538.544C538.411 29.0781 538.33 27.5566 538.131 26.0536C537.993 24.7467 537.537 23.4938 536.801 22.4049C535.749 20.9276 533.847 20.8353 532.831 22.2645C532.513 22.7266 532.264 23.233 532.093 23.7676C531.694 25.0946 531.482 26.4704 531.461 27.8557C531.314 29.9097 531.423 31.9739 531.786 34.0009C531.972 35.1979 532.419 36.3392 533.097 37.3431C534.109 38.7206 535.978 38.7575 536.967 37.3431C537.349 36.7756 537.642 36.1529 537.835 35.4966C538.334 33.9123 538.371 32.2467 538.445 30.5923Z" fill="#005BC1"/>
<path d="M595.962 28.9635H595.083C591.804 28.9635 588.522 28.9635 585.238 28.9635C584.92 28.9635 584.813 29.0225 584.824 29.3734C584.84 30.4838 585.011 31.5864 585.334 32.6491C586.275 35.4779 588.451 36.9773 591.431 36.8887C592.671 36.8726 593.877 36.4784 594.888 35.7586C595.024 35.6589 595.187 35.4299 595.382 35.7106C595.578 35.9913 595.803 36.1168 595.508 36.475C594.155 38.1376 592.224 39.2272 590.101 39.5255C587.885 39.9366 585.596 39.5257 583.661 38.3696C582.671 37.7793 581.811 36.9951 581.132 36.0641C580.453 35.1332 579.969 34.0746 579.709 32.9519C578.912 29.7722 579.225 26.707 581.002 23.9003C581.65 22.8428 582.532 21.9479 583.58 21.284C584.628 20.6202 585.814 20.2051 587.047 20.0707C588.208 19.8876 589.392 19.9289 590.537 20.1925C591.414 20.3983 592.238 20.7882 592.953 21.3364C593.668 21.8846 594.258 22.5786 594.684 23.3722C595.652 25.0858 595.936 26.9618 595.962 28.9635ZM584.835 27.5527L590.474 27.4161C590.397 26.4485 590.364 25.5363 590.242 24.6389C590.162 23.7243 589.874 22.84 589.4 22.0538C589.284 21.8528 589.126 21.6792 588.937 21.5452C588.748 21.4112 588.532 21.32 588.304 21.2779C588.076 21.2357 587.841 21.2436 587.617 21.3011C587.392 21.3586 587.183 21.4642 587.003 21.6107C586.811 21.7497 586.638 21.9136 586.49 22.0981C585.275 23.7009 585.012 25.5843 584.835 27.5712V27.5527Z" fill="#005BC1"/>
<path d="M610.285 23.4019C610.285 24.1405 610.285 24.8496 610.285 25.5734C610.285 26.0683 609.838 25.8947 609.605 26.035C609.572 26.0535 609.365 25.8725 609.325 25.7544C608.878 24.532 608.383 23.3354 607.43 22.4011C607.062 22.0243 606.613 21.7358 606.117 21.5573C605.622 21.3788 605.092 21.3151 604.568 21.3708C603.165 21.5 602.264 22.6596 602.297 24.1368C602.323 25.2927 603.006 26.0166 603.929 26.5077C605.1 27.1319 606.326 27.66 607.533 28.2213C608.641 28.7383 609.698 29.3551 610.436 30.3817C610.942 31.1146 611.221 31.9804 611.238 32.8708C611.347 34.1723 611.039 35.475 610.359 36.5897C609.339 38.1777 607.818 39.0123 606.027 39.4038C604.298 39.7484 602.519 39.7571 600.786 39.4296C599.678 39.245 598.615 38.9163 597.529 38.6541C597.296 38.5987 597.23 38.4583 597.226 38.222C597.202 36.5651 597.166 34.9057 597.119 33.2438C597.119 32.9742 597.285 32.9742 597.44 32.9262C598.105 32.7268 597.965 32.7489 598.179 33.2733C598.583 34.4434 599.203 35.5271 600.007 36.4678C600.491 37.0207 601.112 37.4355 601.808 37.6697C602.504 37.9039 603.25 37.9492 603.97 37.801C604.509 37.7032 605.006 37.4439 605.394 37.0574C605.783 36.671 606.044 36.1755 606.145 35.6369C606.374 34.3702 605.968 33.3768 604.823 32.7268C604.005 32.2799 603.158 31.8864 602.289 31.5487C601.215 31.1129 600.136 30.6993 599.228 29.9459C597.806 28.7642 597.363 27.2057 597.507 25.4257C597.732 22.6559 599.966 20.6617 602.699 20.1558C605.043 19.7526 607.45 19.9547 609.694 20.7429C609.775 20.755 609.853 20.7832 609.922 20.8258C609.992 20.8684 610.053 20.9246 610.101 20.991C610.149 21.0574 610.183 21.1328 610.201 21.2126C610.219 21.2924 610.221 21.3751 610.207 21.4557C610.167 22.102 610.207 22.7519 610.207 23.4019H610.285Z" fill="#005BC1"/>
<path d="M544.179 21.5739L552.152 19.9637V24.0261C552.377 23.6309 552.588 23.2284 552.832 22.8443C553.533 21.6222 554.634 20.6783 555.949 20.1706C557.023 19.7558 558.218 19.7836 559.272 20.2481C559.557 20.3663 559.642 20.5029 559.52 20.8131C558.914 22.3753 558.334 23.9485 557.725 25.5697L557.326 25.3519C555.886 24.5689 554.401 24.3474 552.85 25.0121C552.607 25.0872 552.398 25.2434 552.257 25.4545C552.116 25.6656 552.051 25.9188 552.075 26.1717C552.108 28.2546 552.03 30.3374 552.075 32.4203C552.092 33.7156 552.182 35.0089 552.344 36.2943C552.51 37.5905 553.027 37.9783 554.338 38.0484C554.66 38.0484 554.977 38.1001 555.317 38.1297V39.1563H544.766C544.027 39.1563 544.171 39.1563 544.157 38.5618V38.1555C544.364 38.1186 544.556 38.0743 544.748 38.0484C545.933 37.9007 546.502 37.3874 546.594 36.2019C546.709 34.9352 546.742 33.6611 546.768 32.3907C546.805 30.8064 546.827 29.2221 546.801 27.6378C546.782 26.5041 546.705 25.3703 546.598 24.2439C546.491 23.1176 545.996 22.6227 544.858 22.4639C544.123 22.3568 544.123 22.3568 544.179 21.5739Z" fill="#005BC1"/>
<path d="M742.448 12.307V14.3936H742.533C743.006 13.5731 743.714 12.9123 744.564 12.4954C745.358 12.1082 746.229 11.9049 747.112 11.9008C748.037 11.8702 748.958 12.0233 749.823 12.3514C750.479 12.6127 751.054 13.0434 751.489 13.5996C751.915 14.174 752.208 14.8364 752.345 15.5384C752.518 16.3729 752.601 17.2234 752.593 18.0755V27.3081H748.475V18.8363C748.475 17.6053 748.282 16.6833 747.895 16.0702C747.509 15.4572 746.823 15.1519 745.838 15.1544C744.73 15.1544 743.907 15.4904 743.405 16.1552C742.902 16.8199 742.666 17.9204 742.666 19.4456V27.3007H738.537V12.307H742.448Z" fill="#231F20"/>
<path d="M758.244 23.7074C758.859 24.3057 759.748 24.6048 760.91 24.6048C761.673 24.6258 762.423 24.4076 763.056 23.9807C763.565 23.6808 763.956 23.2155 764.164 22.6623H767.787C767.206 24.462 766.317 25.7472 765.12 26.5178C763.816 27.3199 762.305 27.7229 760.774 27.6774C759.685 27.6937 758.603 27.5019 757.587 27.1124C756.675 26.7607 755.852 26.2108 755.179 25.5022C754.507 24.7836 753.989 23.9354 753.657 23.0095C753.29 21.9876 753.108 20.9082 753.122 19.8224C753.113 18.7537 753.3 17.6925 753.672 16.6907C754.016 15.76 754.547 14.9097 755.233 14.192C755.918 13.4743 756.743 12.9045 757.657 12.5176C758.643 12.1017 759.704 11.8942 760.774 11.9083C761.925 11.8809 763.066 12.1344 764.097 12.6469C765.02 13.1163 765.819 13.7955 766.431 14.63C767.05 15.4825 767.498 16.447 767.75 17.4699C768.022 18.5555 768.12 19.6773 768.042 20.7937H757.228C757.287 22.1379 757.626 23.1092 758.244 23.7074ZM762.897 15.8229C762.402 15.2837 761.656 15.0104 760.652 15.0104C760.087 14.9909 759.525 15.1048 759.012 15.3428C758.609 15.5413 758.253 15.8233 757.967 16.17C757.718 16.4795 757.531 16.8344 757.417 17.2151C757.32 17.5363 757.257 17.8668 757.228 18.2012H763.924C763.808 17.3286 763.453 16.5053 762.897 15.8229Z" fill="#231F20"/>
<path d="M781.487 27.3008L778.821 17.2447H778.762L776.214 27.3008H771.952L767.199 12.3071H771.546L774.301 22.4814H774.36L776.849 12.3071H780.849L783.4 22.4592H783.46L786.211 12.3071H790.443L785.72 27.3008H781.487Z" fill="#231F20"/>
<path d="M793.763 23.5743C793.938 23.8852 794.18 24.1528 794.472 24.3572C794.776 24.5666 795.115 24.7193 795.473 24.8078C795.857 24.9047 796.251 24.9531 796.647 24.9518C796.954 24.9499 797.26 24.9165 797.56 24.8521C797.863 24.7894 798.156 24.6811 798.427 24.5308C798.687 24.39 798.91 24.1917 799.081 23.951C799.264 23.6829 799.356 23.3631 799.343 23.0388C799.343 22.4221 798.93 21.9568 798.11 21.6466C796.988 21.2565 795.841 20.9467 794.675 20.7196C794.077 20.5867 793.49 20.4279 792.921 20.2432C792.382 20.0689 791.87 19.8203 791.4 19.5046C790.963 19.2103 790.598 18.8231 790.329 18.3709C790.044 17.863 789.904 17.2871 789.922 16.7053C789.888 15.8769 790.084 15.0551 790.487 14.3307C790.847 13.721 791.355 13.2127 791.965 12.8535C792.614 12.4936 793.32 12.244 794.051 12.1149C794.836 11.9692 795.632 11.8962 796.429 11.897C797.222 11.895 798.012 11.973 798.789 12.1297C799.512 12.2697 800.204 12.5346 800.835 12.9126C801.431 13.289 801.936 13.7936 802.312 14.3898C802.736 15.0875 802.979 15.8793 803.021 16.6942H799.14C799.081 15.9039 798.781 15.3684 798.239 15.0878C797.645 14.7948 796.988 14.6503 796.326 14.6668C796.079 14.6686 795.833 14.6834 795.587 14.7111C795.333 14.7365 795.084 14.8 794.849 14.8994C794.63 14.9934 794.436 15.1376 794.284 15.3204C794.12 15.5306 794.037 15.7929 794.051 16.059C794.047 16.2295 794.081 16.3988 794.152 16.5542C794.222 16.7095 794.327 16.847 794.457 16.9564C794.77 17.2123 795.13 17.4042 795.517 17.5215C796.002 17.6806 796.495 17.8113 796.994 17.9129C797.556 18.0274 798.125 18.1567 798.704 18.2822C799.284 18.4078 799.886 18.5814 800.459 18.7734C801 18.955 801.512 19.2137 801.98 19.5416C802.418 19.8562 802.784 20.2618 803.051 20.7307C803.337 21.27 803.477 21.8747 803.457 22.4849C803.486 23.3494 803.28 24.2055 802.863 24.9629C802.482 25.6159 801.95 26.1681 801.312 26.5731C800.642 26.9905 799.901 27.2798 799.125 27.4261C798.3 27.592 797.46 27.6749 796.618 27.6736C795.76 27.6744 794.905 27.5865 794.066 27.4114C793.281 27.2567 792.531 26.9628 791.85 26.5435C791.201 26.1371 790.655 25.586 790.255 24.9334C789.813 24.1713 789.579 23.3067 789.575 22.4258H793.486C793.474 22.8265 793.57 23.2232 793.763 23.5743Z" fill="#231F20"/>
<path d="M737.865 41.1421V43.1696H735.797V41.1421H737.865Z" fill="#BBBAC0"/>
<path d="M743.553 34.2064C743.117 34.1923 742.688 34.3094 742.319 34.5425C741.988 34.7662 741.712 35.0615 741.511 35.4066C741.297 35.7688 741.148 36.1647 741.068 36.5773C740.981 36.9927 740.938 37.416 740.938 37.8403C740.938 38.2549 740.981 38.6683 741.068 39.0738C741.146 39.4732 741.288 39.8573 741.489 40.2112C741.683 40.5465 741.954 40.8312 742.279 41.0422C742.641 41.2685 743.063 41.3817 743.49 41.3672C743.8 41.3871 744.111 41.3426 744.402 41.2365C744.694 41.1303 744.961 40.9648 745.185 40.7504C745.602 40.2921 745.861 39.7122 745.924 39.0959H748.878C748.674 40.5731 748.097 41.7044 747.146 42.4898C746.104 43.2996 744.809 43.7143 743.49 43.6605C742.703 43.6701 741.921 43.5258 741.189 43.2358C740.517 42.9754 739.909 42.5736 739.406 42.0577C738.904 41.5401 738.513 40.9256 738.257 40.2519C737.978 39.5174 737.839 38.7369 737.847 37.9511C737.837 37.1325 737.962 36.3177 738.217 35.5396C738.45 34.8281 738.827 34.1721 739.324 33.6118C739.825 33.0663 740.437 32.6354 741.119 32.3488C741.887 32.034 742.712 31.8795 743.542 31.8946C744.188 31.8917 744.832 31.9787 745.455 32.1531C746.046 32.3156 746.602 32.5834 747.098 32.9434C747.608 33.308 748.027 33.7858 748.322 34.3394C748.617 34.893 748.779 35.5073 748.797 36.1341H745.791C745.611 34.849 744.865 34.2064 743.553 34.2064Z" fill="#BBBAC0"/>
<path d="M749.285 35.3662C749.532 34.6725 749.927 34.0407 750.442 33.5142C750.958 32.9876 751.581 32.5788 752.269 32.3158C753.027 32.0255 753.835 31.8826 754.647 31.8948C755.463 31.8834 756.273 32.0262 757.036 32.3158C757.722 32.5792 758.345 32.9844 758.864 33.5049C759.379 34.0322 759.778 34.6611 760.035 35.3514C760.317 36.1313 760.456 36.9558 760.445 37.7851C760.456 38.6108 760.318 39.4318 760.035 40.2077C759.778 40.8984 759.379 41.5275 758.864 42.0542C758.348 42.5751 757.724 42.9771 757.036 43.2323C756.272 43.5176 755.462 43.6579 754.647 43.6459C753.835 43.6586 753.028 43.5183 752.269 43.2323C751.586 42.9742 750.966 42.5725 750.452 42.0542C749.936 41.5283 749.538 40.8989 749.285 40.2077C749.002 39.4318 748.863 38.6108 748.875 37.7851C748.865 36.9608 749.004 36.1414 749.285 35.3662ZM752.073 39.1072C752.153 39.5116 752.303 39.899 752.516 40.2521C752.723 40.5879 753.009 40.8671 753.351 41.0645C753.748 41.2792 754.196 41.3838 754.647 41.3673C755.103 41.3839 755.555 41.2794 755.958 41.0645C756.302 40.8684 756.592 40.5891 756.8 40.2521C757.014 39.8998 757.164 39.5121 757.243 39.1072C757.329 38.6768 757.373 38.2389 757.372 37.7999C757.372 37.356 757.329 36.9133 757.243 36.4778C757.166 36.0723 757.016 35.6843 756.8 35.333C756.587 34.9994 756.299 34.7209 755.958 34.5205C755.557 34.3007 755.104 34.1924 754.647 34.2066C754.225 34.1844 753.805 34.2754 753.431 34.4702C753.056 34.6651 752.74 34.9565 752.516 35.3145C752.301 35.6666 752.151 36.0544 752.073 36.4593C751.987 36.8948 751.944 37.3376 751.944 37.7814C751.942 38.2266 751.985 38.6707 752.073 39.1072Z" fill="#BBBAC0"/>
<path d="M764.012 32.1978V33.7267H764.057C764.439 33.1721 764.945 32.7133 765.534 32.3861C766.134 32.0607 766.809 31.8966 767.491 31.9097C768.159 31.9014 768.82 32.0415 769.426 32.3196C770.035 32.6201 770.51 33.1379 770.756 33.771C771.117 33.253 771.576 32.8113 772.107 32.4711C772.712 32.088 773.416 31.8927 774.131 31.9097C774.686 31.9044 775.239 31.9765 775.775 32.1239C776.253 32.2557 776.696 32.4929 777.071 32.8182C777.449 33.1591 777.739 33.586 777.917 34.0627C778.131 34.6542 778.234 35.2803 778.219 35.9093V43.3913H775.128V37.0504C775.128 36.6811 775.128 36.3118 775.084 35.9905C775.065 35.6881 774.985 35.3927 774.848 35.1226C774.717 34.8772 774.518 34.6746 774.275 34.5391C773.957 34.3809 773.604 34.3071 773.249 34.3249C772.883 34.3079 772.519 34.3936 772.2 34.5724C771.945 34.7283 771.733 34.9453 771.583 35.2039C771.427 35.4855 771.324 35.7935 771.28 36.1124C771.228 36.4521 771.203 36.7953 771.203 37.139V43.3655H768.134V37.0873C768.134 36.755 768.134 36.43 768.112 36.105C768.1 35.7977 768.038 35.4945 767.927 35.2076C767.821 34.936 767.633 34.7047 767.388 34.5465C767.049 34.3612 766.665 34.2754 766.28 34.2991C766.086 34.3076 765.894 34.3398 765.707 34.3951C765.453 34.4692 765.217 34.5949 765.013 34.7644C764.767 34.9772 764.572 35.2421 764.441 35.54C764.267 35.9621 764.186 36.4169 764.204 36.8731V43.3581H761.132V32.1978H764.012Z" fill="#BBBAC0"/>
<path d="M781.044 41.3745V43.3761H778.998V41.3745H781.044Z" fill="#BBBAC0"/>
<path d="M782.432 33.8408C782.743 33.3711 783.157 32.9794 783.644 32.6959C784.157 32.3988 784.716 32.1903 785.298 32.0792C785.906 31.9573 786.525 31.8955 787.145 31.8945C787.717 31.8959 788.288 31.9354 788.855 32.0127C789.401 32.0854 789.933 32.2423 790.431 32.478C790.895 32.6967 791.296 33.0281 791.598 33.4419C791.922 33.9226 792.082 34.4953 792.053 35.0742V40.8907C792.051 41.3747 792.081 41.8582 792.141 42.3384C792.166 42.7022 792.269 43.0562 792.444 43.3761H789.327C789.271 43.2029 789.224 43.0266 789.187 42.848C789.151 42.6663 789.127 42.4825 789.113 42.2978C788.635 42.7927 788.039 43.1576 787.381 43.3577C786.723 43.5577 786.038 43.6597 785.35 43.6605C784.851 43.6626 784.354 43.5967 783.873 43.4647C783.433 43.3454 783.021 43.1395 782.661 42.8591C782.312 42.5822 782.034 42.2266 781.849 41.8214C781.645 41.3561 781.546 40.8519 781.557 40.3442C781.536 39.8011 781.651 39.2614 781.893 38.7746C782.098 38.3827 782.395 38.0458 782.757 37.7923C783.127 37.5397 783.536 37.3524 783.969 37.2383C784.421 37.1174 784.88 37.02 785.343 36.9466C785.804 36.8764 786.258 36.8173 786.705 36.773C787.106 36.7386 787.503 36.6744 787.894 36.581C788.192 36.5187 788.473 36.3928 788.718 36.2117C788.821 36.1207 788.901 36.0059 788.95 35.8772C788.999 35.7484 789.015 35.6097 788.999 35.4731C789.011 35.2002 788.955 34.9286 788.836 34.6828C788.732 34.4978 788.584 34.3417 788.404 34.2285C788.21 34.1178 787.997 34.0451 787.776 34.0143C787.522 33.9763 787.265 33.9578 787.008 33.9589C786.502 33.9299 786 34.0674 785.579 34.3504C785.392 34.5115 785.242 34.7102 785.137 34.9337C785.033 35.1571 784.977 35.4001 784.973 35.6466H781.904C781.914 35.0081 782.097 34.3841 782.432 33.8408ZM788.5 38.1764C788.294 38.244 788.085 38.2983 787.872 38.3388C787.647 38.3832 787.414 38.4201 787.171 38.4459C786.927 38.4718 786.679 38.5124 786.432 38.5567C786.201 38.5985 785.973 38.6553 785.749 38.7266C785.539 38.7919 785.342 38.8917 785.165 39.0221C784.999 39.1441 784.863 39.3019 784.766 39.4837C784.657 39.706 784.605 39.9524 784.615 40.2001C784.606 40.4394 784.658 40.677 784.766 40.8907C784.86 41.0729 785.002 41.2261 785.176 41.3339C785.362 41.4468 785.568 41.5244 785.782 41.5628C786.017 41.6045 786.256 41.6256 786.495 41.6256C786.982 41.6533 787.469 41.5487 787.902 41.3228C788.209 41.1463 788.464 40.8914 788.64 40.5842C788.792 40.3216 788.892 40.0318 788.932 39.7311C788.965 39.501 788.983 39.2692 788.988 39.0368V37.892C788.847 38.0201 788.681 38.117 788.5 38.1764Z" fill="#BBBAC0"/>
<path d="M800.599 43.3765V41.8218H800.536C800.186 42.4331 799.658 42.9229 799.022 43.2251C798.428 43.5098 797.778 43.6587 797.12 43.6609C796.431 43.6825 795.744 43.5722 795.096 43.3359C794.607 43.1454 794.177 42.828 793.852 42.4163C793.534 41.9872 793.317 41.4926 793.216 40.9687C793.087 40.3456 793.025 39.7104 793.032 39.0741V32.1978H796.101V38.5276C796.052 39.2428 796.203 39.9573 796.536 40.592C796.824 41.0462 797.334 41.2752 798.069 41.2752C798.907 41.2752 799.513 41.0241 799.886 40.5366C800.259 40.0491 800.447 39.2182 800.447 38.0807V32.1978H803.52V43.3765H800.599Z" fill="#BBBAC0"/>
<path d="M714.667 8.15234H709.737C709.347 8.15234 709.031 8.46815 709.031 8.85771V14.0944C709.031 14.484 709.347 14.7998 709.737 14.7998H714.667C715.056 14.7998 715.372 14.484 715.372 14.0944V8.85771C715.372 8.46815 715.056 8.15234 714.667 8.15234Z" fill="#C82127"/>
<path d="M714.667 37.3862H709.737C709.347 37.3862 709.031 37.702 709.031 38.0916V43.3283C709.031 43.7179 709.347 44.0337 709.737 44.0337H714.667C715.056 44.0337 715.372 43.7179 715.372 43.3283V38.0916C715.372 37.702 715.056 37.3862 714.667 37.3862Z" fill="#0B8D86"/>
<path d="M694.259 24.8264V29.7565C694.259 30.1461 694.575 30.4619 694.964 30.4619H700.201C700.59 30.4619 700.906 30.1461 700.906 29.7565V24.8264C700.906 24.4368 700.59 24.121 700.201 24.121H694.964C694.575 24.121 694.259 24.4368 694.259 24.8264Z" fill="#814995"/>
<path d="M723.488 24.8298V29.76C723.488 30.1495 723.804 30.4653 724.194 30.4653H729.43C729.82 30.4653 730.136 30.1495 730.136 29.76V24.8298C730.136 24.4402 729.82 24.1244 729.43 24.1244H724.194C723.804 24.1244 723.488 24.4402 723.488 24.8298Z" fill="#777C8F"/>
<path d="M697.773 37.6332L701.259 41.1194C701.535 41.3949 701.981 41.3949 702.257 41.1194L705.959 37.4165C706.235 37.141 706.235 36.6944 705.959 36.419L702.473 32.9328C702.198 32.6573 701.751 32.6573 701.476 32.9328L697.773 36.6357C697.497 36.9112 697.497 37.3578 697.773 37.6332Z" fill="#5495CF"/>
<path d="M718.443 16.9662L721.929 20.4524C722.204 20.7279 722.651 20.7279 722.927 20.4524L726.629 16.7495C726.905 16.474 726.905 16.0274 726.629 15.752L723.143 12.2658C722.868 11.9903 722.421 11.9903 722.146 12.2658L718.443 15.9687C718.167 16.2442 718.167 16.6908 718.443 16.9662Z" fill="#DC9227"/>
<path d="M723.142 41.1202L726.628 37.634C726.904 37.3586 726.904 36.9119 726.628 36.6365L722.925 32.9336C722.65 32.6581 722.203 32.6581 721.928 32.9336L718.442 36.4197C718.166 36.6952 718.166 37.1418 718.442 37.4173L722.144 41.1202C722.42 41.3957 722.867 41.3956 723.142 41.1202Z" fill="#8EB73F"/>
<path d="M702.472 20.4527L705.958 16.9665C706.234 16.6911 706.234 16.2445 705.958 15.969L702.255 12.2661C701.98 11.9906 701.533 11.9906 701.258 12.2661L697.772 15.7523C697.496 16.0277 697.496 16.4743 697.772 16.7498L701.475 20.4527C701.75 20.7282 702.197 20.7282 702.472 20.4527Z" fill="#C82C8B"/>
<path d="M921.574 8.21094H926.807V16.2322C926.881 16.162 926.911 16.1398 926.933 16.114C928.366 14.5149 930.175 14.1604 932.166 14.6368C934.079 15.0947 935.15 16.4501 935.608 18.3003C935.76 18.9042 935.841 19.524 935.848 20.1468C935.87 23.2784 935.848 26.4249 935.848 29.5492C935.848 29.6009 935.848 29.6489 935.848 29.7264H930.589V29.3904C930.589 26.8385 930.589 24.2829 930.589 21.7274C930.586 21.3222 930.533 20.9191 930.43 20.5271C930.359 20.2048 930.185 19.9143 929.935 19.6992C929.684 19.4842 929.371 19.3561 929.041 19.3343C928.703 19.2734 928.355 19.3143 928.04 19.4517C927.725 19.5891 927.458 19.8169 927.273 20.1061C926.96 20.6237 926.809 21.2231 926.84 21.8271V29.7043H921.574V8.21094Z" fill="#39017D"/>
<path d="M914.697 16.0917V14.8102H919.768V29.7116H914.708V28.3525L914.391 28.6923C913.49 29.5831 912.278 30.0878 911.012 30.0993C909.466 30.1791 907.938 29.7366 906.674 28.843C905.41 27.9495 904.483 26.6568 904.043 25.1728C903.035 22.0855 903.482 19.2123 905.642 16.7195C906.479 15.7423 907.587 15.0347 908.826 14.6857C910.065 14.3368 911.379 14.3621 912.603 14.7585C913.352 15.003 914.025 15.4368 914.557 16.0179L914.649 16.0991L914.697 16.0917ZM908.648 22.2664C908.642 22.8771 908.818 23.4757 909.153 23.9865C909.487 24.4972 909.966 24.897 910.529 25.1353C911.091 25.3735 911.711 25.4395 912.311 25.3247C912.911 25.21 913.463 24.9198 913.898 24.4908C914.332 24.0619 914.63 23.5135 914.753 22.9153C914.875 22.3171 914.817 21.6959 914.587 21.1305C914.356 20.5651 913.962 20.081 913.456 19.7395C912.95 19.398 912.354 19.2145 911.743 19.2123C911.338 19.2039 910.935 19.2769 910.558 19.4269C910.182 19.5769 909.839 19.8009 909.55 20.0856C909.262 20.3703 909.033 20.7101 908.878 21.0846C908.723 21.4592 908.645 21.8611 908.648 22.2664Z" fill="#3A017D"/>
<path d="M886.52 14.7915H888.096C889.382 14.7915 890.663 14.7915 891.945 14.7915C892.032 14.7825 892.12 14.805 892.193 14.8551C892.265 14.9053 892.317 14.9796 892.34 15.0648C893.398 17.7903 894.463 20.5169 895.534 23.2449C895.564 23.3187 895.597 23.3963 895.649 23.5366C895.711 23.3963 895.756 23.3039 895.793 23.2116C896.859 20.5034 897.925 17.7952 898.991 15.087C899.011 14.991 899.067 14.9063 899.147 14.8495C899.227 14.7928 899.326 14.7681 899.423 14.7805C901.063 14.7805 902.699 14.7805 904.338 14.7805H904.671C904.623 14.9097 904.593 15.002 904.556 15.0944L896.324 34.9554C896.302 35.0515 896.244 35.1359 896.163 35.1924C896.082 35.2489 895.983 35.2737 895.885 35.2619C894.227 35.2619 892.561 35.2619 890.911 35.2619H890.608C890.648 35.1474 890.674 35.0625 890.707 34.9849C891.389 33.3625 892.075 31.7425 892.764 30.1249C892.808 30.0359 892.831 29.938 892.831 29.8387C892.831 29.7395 892.808 29.6416 892.764 29.5525C890.723 24.7393 888.684 19.9273 886.645 15.1165C886.604 15.0242 886.571 14.9208 886.52 14.7915Z" fill="#3A017D"/>
<path d="M944.939 14.4189C948.507 14.4374 951.502 16.5129 952.525 19.7443C954.131 24.8222 950.811 30.0035 945.139 30.1032C942.269 30.1512 939.891 29.0876 938.273 26.665C935.319 22.2334 937.406 15.4161 943.776 14.5223C944.149 14.467 944.548 14.4522 944.939 14.4189ZM944.939 19.2753C944.343 19.265 943.758 19.4322 943.257 19.7556C942.756 20.0789 942.363 20.5439 942.127 21.0913C941.891 21.6388 941.823 22.244 941.932 22.8301C942.041 23.4162 942.322 23.9566 942.738 24.3828C943.155 24.809 943.689 25.1016 944.273 25.2235C944.856 25.3454 945.463 25.2911 946.016 25.0674C946.568 24.8438 947.042 24.4609 947.376 23.9674C947.711 23.474 947.891 22.8922 947.894 22.2961C947.907 21.9015 947.84 21.5084 947.697 21.1404C947.554 20.7724 947.338 20.4372 947.062 20.1549C946.785 19.8726 946.455 19.6492 946.09 19.498C945.726 19.3468 945.334 19.2711 944.939 19.2753Z" fill="#3A017D"/>
<path d="M953.814 22.4476C953.814 17.7095 957.462 14.238 962.082 14.4485C964.904 14.5741 967.193 15.7189 968.667 18.1711C971.411 22.7246 969.095 29.3535 962.758 30.0478C959.859 30.3691 957.366 29.4828 955.475 27.1857C954.394 25.8438 953.808 24.1709 953.814 22.4476ZM961.827 19.2901C961.231 19.2798 960.645 19.4471 960.145 19.7706C959.644 20.0942 959.25 20.5593 959.015 21.107C958.779 21.6547 958.711 22.2601 958.82 22.8463C958.93 23.4324 959.211 23.9729 959.628 24.3989C960.045 24.825 960.579 25.1173 961.163 25.2388C961.747 25.3603 962.354 25.3054 962.906 25.0812C963.459 24.857 963.932 24.4735 964.266 23.9796C964.6 23.4856 964.779 22.9035 964.782 22.3073C964.79 21.914 964.72 21.5231 964.575 21.1574C964.43 20.7917 964.214 20.4585 963.939 20.1775C963.664 19.8965 963.335 19.6732 962.973 19.5208C962.61 19.3684 962.221 19.29 961.827 19.2901Z" fill="#3A017D"/>
<path d="M972.349 21.7122L977.947 8.1958H984.2C984.159 8.29551 984.126 8.38784 984.089 8.47647L978.738 21.402C978.715 21.4979 978.657 21.5819 978.576 21.6378C978.495 21.6937 978.396 21.7176 978.298 21.7048C976.429 21.7048 974.553 21.7048 972.681 21.7048L972.349 21.7122Z" fill="#3A017D"/>
<path d="M948.92 35.9972V35.2845H951.949V43.7009H948.924V42.8515C948.479 43.4047 947.847 43.7774 947.148 43.9003C946.446 44.0479 945.716 43.9867 945.049 43.7241C944.381 43.4616 943.805 43.0093 943.392 42.4231C942.763 41.5252 942.444 40.447 942.483 39.3516C942.521 38.2561 942.916 37.2031 943.606 36.3518C944.086 35.7847 944.726 35.3757 945.442 35.178C946.158 34.9804 946.918 35.0033 947.62 35.2438C948.074 35.4588 948.509 35.7108 948.92 35.9972ZM948.994 39.5056C948.997 39.2788 948.954 39.0538 948.867 38.844C948.781 38.6342 948.654 38.4438 948.492 38.2843C948.331 38.1248 948.14 37.9993 947.929 37.9154C947.718 37.8315 947.493 37.7908 947.266 37.7957C946.929 37.7994 946.6 37.9026 946.321 38.0926C946.043 38.2825 945.826 38.5506 945.7 38.8631C945.573 39.1756 945.542 39.5186 945.609 39.849C945.677 40.1793 945.841 40.4823 946.081 40.7197C946.32 40.9572 946.624 41.1185 946.955 41.1834C947.286 41.2483 947.629 41.2139 947.94 41.0845C948.252 40.9551 948.518 40.7366 948.705 40.4563C948.893 40.176 948.993 39.8465 948.994 39.5093V39.5056Z" fill="#7F21FE"/>
<path d="M941.642 43.7119H938.539V39.2323C938.54 39.0298 938.517 38.8279 938.473 38.6303C938.438 38.427 938.335 38.2415 938.182 38.1035C938.029 37.9655 937.833 37.8831 937.627 37.8695C937.41 37.8278 937.185 37.8637 936.991 37.971C936.797 38.0783 936.647 38.2502 936.567 38.4567C936.464 38.7203 936.41 39.0008 936.409 39.284C936.39 40.6504 936.409 42.0131 936.409 43.3758V43.7451H933.321V35.2807H936.394V36.1929C936.454 36.1355 936.51 36.0751 936.564 36.012C936.832 35.7063 937.161 35.4603 937.53 35.2898C937.899 35.1193 938.3 35.0282 938.707 35.0223C939.113 35.0164 939.516 35.0958 939.89 35.2555C940.264 35.4151 940.6 35.6515 940.877 35.9492C941.334 36.5271 941.593 37.2366 941.616 37.973C941.625 38.1452 941.625 38.3178 941.616 38.49L941.642 43.7119Z" fill="#7F21FE"/>
<path d="M956.35 35.2771V36.1375C956.391 36.1191 956.43 36.0955 956.465 36.0674C957.244 35.0666 958.311 34.8671 959.456 35.1293C960.601 35.3915 961.233 36.2114 961.487 37.3452C961.558 37.6529 961.594 37.9675 961.594 38.2832C961.594 40.0226 961.594 41.7657 961.594 43.5051C961.594 43.5716 961.594 43.6417 961.594 43.7267H958.503V43.3869C958.503 42.0057 958.503 40.6221 958.503 39.236C958.504 39.0335 958.481 38.8316 958.437 38.634C958.4 38.4255 958.293 38.2358 958.134 38.0961C957.975 37.9565 957.773 37.8753 957.562 37.8659C957.338 37.8312 957.109 37.8767 956.915 37.9942C956.721 38.1117 956.575 38.2938 956.502 38.5085C956.413 38.7677 956.368 39.0397 956.369 39.3135C956.369 40.6652 956.369 42.0205 956.369 43.3758V43.7452H953.285V35.2771H956.35Z" fill="#7F21FE"/>
<path d="M978.408 40.2883H972.596C972.601 40.4888 972.656 40.6848 972.756 40.8588C972.856 41.0328 972.998 41.1794 973.168 41.2854C973.499 41.4992 973.893 41.5941 974.285 41.5545C974.676 41.5149 975.043 41.3432 975.325 41.0675C975.372 40.9978 975.444 40.9485 975.526 40.9294C975.608 40.9102 975.694 40.9226 975.768 40.9641C976.54 41.2743 977.319 41.566 978.124 41.8726C978.092 41.9493 978.053 42.0234 978.009 42.0942C977.19 43.3165 975.989 43.8446 974.571 43.9407C973.707 44.0332 972.833 43.9061 972.031 43.5714C970.505 42.8955 969.77 41.6658 969.582 40.0482C969.475 39.1735 969.628 38.2867 970.022 37.4985C970.416 36.7103 971.034 36.0558 971.798 35.6166C972.59 35.1767 973.494 34.9774 974.397 35.043C975.301 35.1086 976.166 35.4363 976.887 35.9859C977.33 36.3481 977.694 36.797 977.957 37.3051C978.22 37.8132 978.376 38.3696 978.416 38.9403C978.437 39.3895 978.434 39.8394 978.408 40.2883ZM975.417 38.5082C975.38 37.7918 974.771 37.3376 973.94 37.3708C973.201 37.3966 972.629 37.8952 972.64 38.5082H975.417Z" fill="#7F21FE"/>
<path d="M925.766 37.7549V43.7191H922.682V37.7549H921.574V35.2658H922.642C922.682 34.8559 922.697 34.4718 922.763 34.0951C923.081 32.3225 924.27 31.2404 926.087 31.1592C926.653 31.1666 927.217 31.2272 927.771 31.3401C927.823 31.3585 927.869 31.3899 927.905 31.4313C927.942 31.4727 927.967 31.5227 927.978 31.5765C927.978 32.3557 927.978 33.1386 927.978 33.9511C927.317 33.7628 926.671 33.5818 926.131 34.121C925.99 34.2696 925.886 34.4505 925.83 34.6481C925.774 34.8456 925.767 35.0539 925.81 35.2547H927.852V37.7549H925.766Z" fill="#7F21FE"/>
<path d="M968.995 38.1982C968.609 38.0458 968.209 37.9284 967.802 37.8473C967.421 37.8064 967.035 37.8441 966.668 37.9581C966.305 38.0724 965.995 38.3145 965.796 38.6397C965.597 38.9649 965.522 39.3512 965.586 39.7271C965.639 40.1034 965.818 40.4506 966.095 40.7111C966.372 40.9716 966.729 41.13 967.108 41.16C967.699 41.2301 968.009 41.16 968.954 40.7316C968.954 40.798 968.973 40.8645 968.98 40.931C968.98 41.7065 968.98 42.4784 968.98 43.2539C968.99 43.3282 968.974 43.4036 968.933 43.4666C968.892 43.5296 968.831 43.576 968.759 43.5973C968.023 43.9206 967.215 44.048 966.416 43.9671C965.616 43.8862 964.851 43.5998 964.194 43.1357C962.813 42.1829 962.325 40.7685 962.44 39.1399C962.684 35.6537 966.133 34.3574 968.718 35.3545C968.798 35.3746 968.869 35.423 968.916 35.4908C968.964 35.5587 968.985 35.6415 968.977 35.7238C968.988 36.5548 968.995 37.3857 968.995 38.1982Z" fill="#7F21FE"/>
<path d="M970.447 26.5502C970.446 25.6155 970.816 24.7186 971.476 24.0566C972.136 23.3946 973.032 23.0217 973.966 23.0197H974.014C974.466 23.0152 974.914 23.1013 975.332 23.2731C975.75 23.4449 976.129 23.6988 976.447 24.0198C976.764 24.3407 977.015 24.7222 977.182 25.1417C977.35 25.5611 977.432 26.0099 977.423 26.4616C977.425 26.9284 977.334 27.391 977.155 27.8222C976.976 28.2534 976.713 28.6447 976.381 28.973C976.05 29.3014 975.656 29.5604 975.223 29.7347C974.789 29.909 974.326 29.9953 973.859 29.9884C973.408 29.9934 972.959 29.9077 972.541 29.7364C972.123 29.5651 971.744 29.3116 971.426 28.991C971.108 28.6703 970.857 28.2891 970.689 27.8699C970.521 27.4506 970.438 27.0019 970.447 26.5502Z" fill="#3A027D"/>
<path d="M931.984 43.7153H928.926V35.2842H931.984V43.7153Z" fill="#7F22FE"/>
<path d="M930.463 31.0743C930.688 31.0723 930.911 31.1147 931.12 31.199C931.328 31.2834 931.518 31.408 931.679 31.5657C931.839 31.7235 931.967 31.9113 932.055 32.1184C932.143 32.3256 932.189 32.548 932.191 32.7731V32.7915C932.184 33.2493 931.996 33.6856 931.668 34.0048C931.34 34.324 930.898 34.4999 930.441 34.494C929.989 34.4865 929.557 34.3043 929.236 33.9855C928.915 33.6668 928.73 33.2363 928.72 32.7841C928.725 32.3264 928.911 31.8893 929.238 31.5687C929.564 31.2482 930.005 31.0703 930.463 31.0743Z" fill="#7F22FE"/>
<path d="M948.994 39.5091C949 39.8556 948.902 40.1961 948.713 40.4869C948.525 40.7778 948.254 41.0058 947.935 41.1418C947.616 41.2778 947.264 41.3157 946.924 41.2506C946.583 41.1856 946.27 41.0204 946.024 40.7764C945.778 40.5323 945.61 40.2204 945.542 39.8806C945.474 39.5407 945.509 39.1882 945.642 38.8682C945.775 38.5483 946.001 38.2753 946.29 38.0842C946.579 37.8931 946.919 37.7926 947.265 37.7955C947.492 37.7931 947.716 37.8356 947.926 37.9207C948.136 38.0057 948.327 38.1316 948.488 38.291C948.649 38.4504 948.776 38.6402 948.863 38.8493C948.95 39.0584 948.994 39.2827 948.994 39.5091Z" fill="#FCFBFE"/>
<path d="M975.418 38.4935H972.637C972.637 37.8804 973.198 37.3856 973.937 37.356C974.771 37.3375 975.381 37.7918 975.418 38.4935Z" fill="#FAF6FE"/>
<path fill-rule="evenodd" clip-rule="evenodd" d="M1080.23 11.7513C1080.13 13.4612 1080.03 15.1674 1079.93 16.9215L1077.37 16.8292C1077.31 15.7545 1077.25 14.7131 1077.19 13.6384H1073.21V21.2719H1074.94C1075.07 20.718 1075.2 20.164 1075.34 19.5916H1077.11V24.8431H1075.37C1075.23 24.278 1075.08 23.7019 1074.93 23.1073H1073.22V31.2098H1077.22C1077.35 30.0576 1077.47 28.9128 1077.59 27.7051L1080.28 27.7938C1080.35 29.596 1080.42 31.3649 1080.49 33.1634H1067.41V31.2837L1069.26 30.9661V13.8305L1067.2 13.6052V11.7402L1080.23 11.7513Z" fill="#EC1C24"/>
<path fill-rule="evenodd" clip-rule="evenodd" d="M1126.6 40.4384C1126.63 39.9177 1126.66 39.4487 1126.7 38.9612L1128.09 38.6547V20.3816L1126.44 20.1305V18.6053L1130.8 17.9996C1130.96 18.561 1131.1 19.0854 1131.26 19.632C1131.32 19.5841 1131.37 19.5323 1131.43 19.4769C1132.49 18.2508 1133.87 17.8298 1135.43 17.9812C1137.4 18.1695 1138.48 19.4104 1139.02 21.183C1139.27 21.9769 1139.42 22.7956 1139.49 23.6241C1139.66 25.3167 1139.61 27.0248 1139.32 28.702C1139.21 29.3261 1139.02 29.9363 1138.78 30.5227C1138.04 32.2916 1136.64 33.2259 1134.74 33.3921C1133.78 33.4994 1132.8 33.3582 1131.91 32.9822C1131.84 32.9577 1131.77 32.938 1131.69 32.9231V38.6621L1133.17 38.9686C1133.14 39.4524 1133.11 39.9325 1133.08 40.4458L1126.6 40.4384ZM1131.67 30.8846C1132.75 31.3704 1133.98 31.4128 1135.09 31.0028C1135.19 30.9755 1135.29 30.9208 1135.36 30.8446C1135.43 30.7684 1135.48 30.6737 1135.51 30.5707C1135.64 30.0019 1135.82 29.4369 1135.9 28.8608C1136.12 27.1125 1136.15 25.3456 1135.99 23.5909C1135.94 22.9894 1135.83 22.3948 1135.65 21.8182C1135.27 20.5737 1134.42 20.0973 1133.13 20.3078C1133.06 20.3078 1133 20.341 1132.94 20.3521C1132.58 20.4078 1132.25 20.5941 1132.01 20.8758C1131.78 21.1574 1131.66 21.515 1131.67 21.881V30.8846Z" fill="#EC1C24"/>
<path fill-rule="evenodd" clip-rule="evenodd" d="M1175.1 31.3128L1176.63 31.623C1176.6 32.1511 1176.58 32.6497 1176.55 33.1741H1171.56C1171.56 33.0633 1171.56 32.9525 1171.56 32.8454C1171.56 29.5217 1171.56 26.198 1171.56 22.8964C1171.55 22.4426 1171.47 21.9934 1171.32 21.5632C1171.24 21.3242 1171.09 21.1126 1170.89 20.9513C1170.7 20.7899 1170.46 20.6848 1170.21 20.6474C1169.72 20.5328 1169.2 20.5767 1168.74 20.7729C1168.53 20.8462 1168.35 20.9799 1168.21 21.1569C1168.08 21.3338 1168.01 21.5461 1168 21.7663C1168 24.9017 1168 28.0445 1168 31.1761C1168 31.2252 1168.02 31.2734 1168.03 31.3202L1169.51 31.6193C1169.48 32.1326 1169.45 32.6423 1169.42 33.1778H1162.99V31.6267L1164.42 31.3165V20.5329L1162.78 20.3445V18.7565L1167.02 18.1472L1167.39 19.5284C1167.71 19.2846 1168.04 19.0003 1168.41 18.7639C1169.06 18.3325 1169.81 18.0637 1170.58 17.9801C1171.36 17.8966 1172.14 18.0007 1172.87 18.2838C1174.16 18.7528 1174.84 19.7795 1175.08 21.1127C1175.14 21.4791 1175.17 21.8495 1175.17 22.2206C1175.17 25.0605 1175.17 27.9041 1175.17 30.7478L1175.1 31.3128Z" fill="#EC1C24"/>
<path fill-rule="evenodd" clip-rule="evenodd" d="M1086.81 31.3165L1088.29 31.6193C1088.25 32.1437 1088.22 32.646 1088.19 33.1741H1081.69C1081.72 32.6644 1081.75 32.1659 1081.78 31.623L1083.16 31.3239C1083.26 30.973 1083.29 21.0794 1083.16 20.5292L1081.52 20.3445V18.7602L1085.77 18.1509L1086.14 19.5616C1086.26 19.4582 1086.39 19.3326 1086.53 19.2145C1087.15 18.6657 1087.9 18.2801 1088.71 18.0925C1089.52 17.9049 1090.36 17.9212 1091.16 18.1398C1092.64 18.5091 1093.49 19.5099 1093.79 20.9834C1093.86 21.3681 1093.9 21.7589 1093.9 22.1504C1093.9 25.0088 1093.9 27.8672 1093.9 30.7256V31.3128L1095.42 31.6119C1095.42 31.8741 1095.4 32.1289 1095.39 32.3801C1095.38 32.6312 1095.39 32.8971 1095.39 33.1777H1090.37V32.609C1090.37 29.4724 1090.37 26.3371 1090.37 23.2029C1090.36 22.8319 1090.33 22.4616 1090.28 22.095C1090.25 21.704 1090.08 21.3367 1089.8 21.064C1089.52 20.7913 1089.14 20.6324 1088.75 20.6178C1088.12 20.5587 1087.48 20.5735 1087.01 21.1459C1086.83 21.3503 1086.74 21.6131 1086.74 21.8845C1086.74 24.2702 1086.74 26.6522 1086.74 29.0379V30.7994C1086.79 30.9767 1086.8 31.1355 1086.81 31.3165Z" fill="#EC1C24"/>
<path fill-rule="evenodd" clip-rule="evenodd" d="M1198.05 20.1342L1196.4 19.968V18.5684L1201.26 18.0181C1201.49 18.5854 1201.62 19.1867 1201.66 19.7982C1201.66 23.4395 1201.66 27.0808 1201.66 30.7221V31.313L1203.17 31.6232C1203.12 32.1476 1203.06 32.6462 1203.01 33.1706H1198.84L1198.45 31.9666C1198.32 32.0737 1198.21 32.1439 1198.12 32.2252C1196.42 33.7836 1194.13 33.6248 1192.67 32.9194C1192.15 32.666 1191.69 32.2853 1191.35 31.8119C1191.01 31.3384 1190.8 30.7873 1190.72 30.2088C1190.65 29.8062 1190.62 29.3984 1190.62 28.9901C1190.62 26.2462 1190.62 23.5023 1190.62 20.7583V20.1453L1188.97 19.9643V18.5721L1193.8 18.0107C1193.99 18.5326 1194.11 19.0759 1194.16 19.6283C1194.16 22.5015 1194.16 25.3758 1194.16 28.2515C1194.16 28.643 1194.19 29.0341 1194.24 29.4222C1194.27 29.8944 1194.48 30.3371 1194.83 30.6549C1195.18 30.9727 1195.64 31.1401 1196.11 31.1209C1196.49 31.1134 1196.86 31.0613 1197.22 30.9658C1197.46 30.8593 1197.66 30.6959 1197.82 30.4902C1197.98 30.2846 1198.08 30.0432 1198.12 29.7878C1198.12 26.6241 1198.12 23.4567 1198.12 20.2856C1198.1 20.2325 1198.08 20.1816 1198.05 20.1342Z" fill="#EC1C24"/>
<path fill-rule="evenodd" clip-rule="evenodd" d="M1118.52 26.6264C1118.46 27.7718 1118.75 28.9092 1119.36 29.88C1119.62 30.2872 1119.98 30.6213 1120.41 30.8506C1120.83 31.08 1121.31 31.1972 1121.79 31.191C1122.76 31.2051 1123.72 31.015 1124.6 30.6333C1124.72 30.5816 1124.84 30.5373 1125.01 30.4746C1125.2 30.9288 1125.4 31.3683 1125.62 31.8705C1125.35 32.0478 1125.1 32.2398 1124.82 32.406C1123.01 33.381 1121.12 33.717 1119.1 33.1446C1117.42 32.6571 1116.33 31.4938 1115.6 29.9501C1114.86 28.2701 1114.57 26.4217 1114.78 24.5953C1114.86 23.4697 1115.14 22.367 1115.6 21.338C1116.38 19.6577 1117.6 18.4907 1119.46 18.0993C1121.22 17.73 1122.87 17.9515 1124.23 19.2626C1125 20.0538 1125.53 21.0322 1125.8 22.0988C1126.1 23.1811 1126.24 24.2998 1126.23 25.4225C1126.17 25.8062 1126.06 26.1796 1125.9 26.5304L1118.52 26.6264ZM1122.98 24.695C1122.93 24.2407 1122.91 23.8677 1122.87 23.4984C1122.8 22.6195 1122.56 21.7631 1122.15 20.9798C1121.97 20.5898 1121.64 20.286 1121.24 20.1324C1120.84 19.9788 1120.39 19.9873 1119.99 20.1563C1119.83 20.2055 1119.67 20.2932 1119.54 20.4124C1119.42 20.5317 1119.32 20.6791 1119.26 20.8432C1118.78 22.0422 1118.51 23.3136 1118.47 24.6027C1118.47 24.7051 1118.49 24.8065 1118.52 24.9055L1122.98 24.695Z" fill="#EC1C24"/>
<path fill-rule="evenodd" clip-rule="evenodd" d="M1188.32 26.5343L1180.94 26.623C1180.9 27.1309 1180.94 27.6418 1181.06 28.1371C1181.18 28.8797 1181.5 29.5771 1181.97 30.1609C1182.23 30.4787 1182.56 30.7358 1182.93 30.9138C1183.3 31.0919 1183.7 31.1866 1184.11 31.1912C1185.04 31.2251 1185.97 31.0576 1186.83 30.7001L1187.41 30.4785C1187.61 30.9364 1187.8 31.3833 1188.02 31.8929L1187.78 32.0517C1186.27 33.122 1184.42 33.5908 1182.58 33.3664C1180.26 33.1116 1178.72 31.7526 1177.88 29.6439C1177.35 28.3401 1177.08 26.9432 1177.1 25.535C1177.11 24.1267 1177.4 22.7352 1177.96 21.4417C1178.68 19.6986 1179.94 18.4873 1181.83 18.0921C1183.31 17.7745 1184.76 17.8668 1186.06 18.7642C1186.93 19.4067 1187.59 20.301 1187.94 21.3272C1188.43 22.6226 1188.66 24.0039 1188.61 25.3895C1188.57 25.7817 1188.47 26.1663 1188.32 26.5343ZM1185.37 24.6878C1185.35 23.7069 1185.2 22.7332 1184.92 21.7925C1184.77 21.328 1184.54 20.894 1184.23 20.511C1183.65 19.7724 1181.86 19.9128 1181.58 20.9394C1181.32 21.7594 1181.11 22.5959 1180.96 23.4433C1180.87 23.9209 1180.85 24.4108 1180.9 24.8946L1185.37 24.6878Z" fill="#EC1C24"/>
<path fill-rule="evenodd" clip-rule="evenodd" d="M1162.09 26.5342L1154.7 26.6265C1154.7 27.9523 1154.92 29.1526 1155.76 30.1608C1156.01 30.473 1156.33 30.7266 1156.69 30.9039C1157.05 31.0812 1157.44 31.178 1157.84 31.1874C1158.79 31.2281 1159.74 31.0631 1160.62 30.7036L1161.19 30.4747C1161.39 30.9289 1161.56 31.3721 1161.8 31.8595C1161.62 31.9851 1161.46 32.1218 1161.29 32.2288C1159.67 33.2813 1157.7 33.6577 1155.8 33.2777C1153.98 32.9084 1152.71 31.8005 1151.89 30.1534C1151.27 28.7668 1150.94 27.267 1150.92 25.7473C1150.9 24.2276 1151.2 22.7205 1151.79 21.3197C1152.4 20.005 1153.29 18.9414 1154.68 18.3985C1156.29 17.7633 1157.92 17.7005 1159.48 18.5499C1160.46 19.1229 1161.21 20.0179 1161.61 21.0833C1162.16 22.4504 1162.43 23.9157 1162.39 25.3894C1162.35 25.7834 1162.24 26.1688 1162.09 26.5342ZM1159.17 24.6877C1159.12 24.1965 1159.1 23.7608 1159.04 23.3287C1158.97 22.5156 1158.73 21.7245 1158.36 20.9984C1157.83 20.0641 1157.03 19.7945 1156.03 20.2007C1155.91 20.2458 1155.8 20.3149 1155.71 20.4037C1155.61 20.4925 1155.54 20.5993 1155.49 20.7177C1155.08 21.676 1154.82 22.6927 1154.72 23.7312C1154.67 24.1005 1154.65 24.4698 1154.61 24.8982L1159.17 24.6877Z" fill="#EC1C24"/>
<path fill-rule="evenodd" clip-rule="evenodd" d="M1108.8 18.1659C1108.92 18.6201 1109.02 19.0374 1109.14 19.4954C1109.31 19.3883 1109.48 19.2812 1109.66 19.1778C1110.69 18.6033 1111.83 18.2546 1113 18.1548C1113.26 18.1117 1113.52 18.1461 1113.75 18.2535C1113.98 18.3609 1114.18 18.5364 1114.31 18.7568C1114.16 20.0604 1114.02 21.3862 1113.86 22.7563L1111.46 22.6566C1111.37 21.918 1111.29 21.2348 1111.2 20.5146C1110.65 20.5536 1110.12 20.7384 1109.66 21.0501V31.3426L1111.14 31.6823C1111.11 32.1846 1111.09 32.6647 1111.06 33.1817H1104.64V31.7045L1105.98 31.3647V20.5294L1104.44 20.3485V18.7568L1108.8 18.1659Z" fill="#EC1C24"/>
<path fill-rule="evenodd" clip-rule="evenodd" d="M1204.07 33.1816C1204.09 32.6572 1204.11 32.1734 1204.14 31.6638L1205.47 31.3351V20.533L1203.9 20.3447V18.7567L1208.27 18.1547L1208.59 19.4177C1209.19 19.1055 1209.81 18.8256 1210.44 18.5794C1211.08 18.3983 1211.73 18.2564 1212.39 18.1547C1212.66 18.0856 1212.93 18.1066 1213.18 18.2144C1213.43 18.3222 1213.64 18.5106 1213.77 18.7493C1213.62 20.0271 1213.47 21.3553 1213.32 22.7341L1210.92 22.6454C1210.83 21.9068 1210.74 21.2088 1210.64 20.4296L1209.13 20.9577V31.3351L1210.61 31.6712C1210.58 32.1771 1210.55 32.672 1210.51 33.1853L1204.07 33.1816Z" fill="#EC1C24"/>
<path fill-rule="evenodd" clip-rule="evenodd" d="M1147.38 20.4111L1145.85 20.9762V31.3166L1147.37 31.6564C1147.33 32.1697 1147.29 32.6498 1147.25 33.1594H1140.84V31.6822L1142.2 31.3351V20.5293L1140.64 20.3484V18.7604L1144.98 18.151C1145.1 18.5868 1145.23 19.0152 1145.35 19.4436C1145.78 19.222 1146.19 18.9893 1146.61 18.7899C1147.41 18.4485 1148.25 18.233 1149.11 18.151C1149.37 18.0932 1149.65 18.1182 1149.9 18.2226C1150.15 18.327 1150.36 18.5057 1150.51 18.7345C1150.37 20.0086 1150.22 21.3196 1150.07 22.734L1147.66 22.6454C1147.57 21.9105 1147.48 21.2236 1147.38 20.4111Z" fill="#EC1C24"/>
<path fill-rule="evenodd" clip-rule="evenodd" d="M1100.61 15.2925V18.3281H1103.28C1103.22 19.004 1103.17 19.6096 1103.11 20.2374L1100.71 20.5107C1100.69 20.6388 1100.67 20.7683 1100.67 20.8985C1100.67 23.8184 1100.67 26.7396 1100.67 29.662C1100.66 29.8581 1100.67 30.0542 1100.69 30.2492C1100.72 30.5261 1100.84 30.7838 1101.05 30.9712C1101.25 31.1587 1101.52 31.2621 1101.8 31.2611C1102.29 31.2611 1102.77 31.2611 1103.32 31.2611C1103.37 31.804 1103.42 32.3173 1103.48 32.8343C1103.11 33.0535 1102.7 33.1919 1102.27 33.2405C1101.37 33.4305 1100.45 33.4568 1099.54 33.3181C1098.9 33.2355 1098.3 32.9335 1097.85 32.4629C1097.4 31.9922 1097.13 31.3814 1097.08 30.733C1097.05 30.4409 1097.04 30.1474 1097.04 29.854C1097.04 26.9193 1097.04 23.9821 1097.04 21.0425C1097.04 20.8652 1097.02 20.6732 1097.01 20.5107L1095.32 20.23C1095.35 19.6207 1095.37 19.0261 1095.4 18.3835L1097.31 18.2912C1097.59 17.3421 1097.86 16.3967 1098.15 15.4291L1100.61 15.2925Z" fill="#EC1C24"/>
<path d="M1214.15 32.2584C1214.19 32.5153 1214.16 32.7789 1214.04 33.0138C1213.93 33.2486 1213.75 33.4432 1213.52 33.5713C1213.3 33.6993 1213.04 33.7547 1212.78 33.7298C1212.52 33.7049 1212.27 33.601 1212.07 33.4322C1211.88 33.2633 1211.73 33.0377 1211.67 32.7858C1211.6 32.5339 1211.62 32.2679 1211.71 32.0237C1211.8 31.7796 1211.96 31.5692 1212.17 31.4209C1212.39 31.2727 1212.64 31.1937 1212.9 31.1948C1213.21 31.1713 1213.51 31.27 1213.75 31.4693C1213.98 31.6685 1214.13 31.9522 1214.15 32.2584ZM1212.02 32.2584C1212 32.4368 1212.04 32.6162 1212.13 32.773C1212.21 32.9297 1212.35 33.0565 1212.51 33.1364C1212.67 33.2164 1212.85 33.2459 1213.03 33.221C1213.2 33.1962 1213.37 33.118 1213.5 32.997C1213.63 32.876 1213.73 32.7177 1213.77 32.5431C1213.81 32.3685 1213.79 32.1858 1213.73 32.019C1213.66 31.8522 1213.55 31.7092 1213.4 31.6089C1213.25 31.5085 1213.08 31.4556 1212.9 31.457C1212.79 31.4505 1212.67 31.4664 1212.57 31.5037C1212.47 31.541 1212.37 31.5989 1212.29 31.674C1212.21 31.7491 1212.14 31.8399 1212.09 31.9409C1212.05 32.042 1212.02 32.1512 1212.02 32.2621V32.2584ZM1212.76 32.7607H1212.42V31.7783C1212.58 31.754 1212.74 31.7428 1212.91 31.7451C1213.06 31.7337 1213.22 31.759 1213.36 31.8189C1213.4 31.8417 1213.43 31.8738 1213.45 31.912C1213.47 31.9503 1213.48 31.9933 1213.48 32.0368C1213.48 32.1365 1213.37 32.2215 1213.22 32.2584C1213.28 32.2719 1213.33 32.3031 1213.37 32.3479C1213.41 32.3928 1213.44 32.4491 1213.45 32.5095C1213.47 32.5908 1213.49 32.6701 1213.53 32.7459H1213.16C1213.12 32.681 1213.09 32.6097 1213.08 32.5354C1213.08 32.5131 1213.07 32.4916 1213.06 32.472C1213.05 32.4525 1213.04 32.4353 1213.02 32.4215C1213 32.4077 1212.98 32.3976 1212.96 32.3918C1212.94 32.386 1212.91 32.3846 1212.89 32.3877H1212.78L1212.76 32.7607ZM1212.76 32.1956H1212.86C1212.98 32.1956 1213.07 32.155 1213.07 32.0811C1213.07 32.0073 1212.99 31.9556 1212.87 31.9556H1212.76V32.1956Z" fill="#EC1C24"/>
<path d="M1314.96 19.7731C1314.4 18.403 1313.05 16.9221 1310.53 17.1252C1309.92 17.1813 1309.33 17.3676 1308.8 17.6714C1308.27 17.9752 1307.81 18.3893 1307.46 18.8857C1307.1 19.3821 1306.86 19.9492 1306.74 20.5484C1306.63 21.1475 1306.64 21.7648 1306.78 22.3582C1305.97 21.8149 1305.01 21.5564 1304.03 21.6232C1303.06 21.6901 1302.14 22.0786 1301.41 22.7275C1298.95 25.1686 1300.26 28.4701 1301.62 29.2604C1300.59 29.2116 1299.58 29.5366 1298.78 30.1751C1297.98 30.8136 1297.43 31.7222 1297.25 32.7319C1296.69 35.9707 1299.19 37.8578 1301.62 37.8578H1328.57C1331.38 37.8578 1332.94 35.4536 1332.77 33.1861C1332.49 30.2317 1329.75 29.0906 1328.26 29.3306C1329.51 28.6437 1331.17 25.4086 1328.63 22.8641C1326.62 20.9696 1324.05 21.6602 1323.15 22.4948C1323.64 20.9105 1322.84 17.6422 1319.58 17.1252C1319.36 17.1005 1319.15 17.0882 1318.93 17.0883C1318.08 17.0768 1317.24 17.328 1316.53 17.8081C1315.82 18.2882 1315.28 18.974 1314.97 19.7731" fill="white"/>
<path d="M1301.83 23.2483C1300.41 24.5224 1299.89 27.4103 1302.45 29.098L1312.68 36.0409L1307.72 24.7993C1306.69 22.1441 1303.84 21.5643 1301.82 23.2483" fill="#EB680F"/>
<path d="M1310.64 17.7828C1310.07 17.827 1309.52 18.0054 1309.03 18.3034C1308.55 18.6014 1308.14 19.0104 1307.84 19.4969C1307.54 19.9834 1307.36 20.5336 1307.32 21.1022C1307.28 21.6709 1307.37 22.2419 1307.59 22.7683L1312.72 34.7374L1314.52 22.1479C1314.94 19.0162 1312.55 17.5723 1310.64 17.7828Z" fill="#CB1244"/>
<path d="M1315.33 21.6676H1316.3C1316.3 21.6676 1316.82 21.6676 1316.89 21.9076C1316.52 22.2178 1315.47 22.2548 1315.6 23.9019L1317.23 34.7372L1322.33 22.7349C1322.54 22.2052 1322.62 21.6337 1322.57 21.0661C1322.52 20.4986 1322.34 19.9506 1322.04 19.4659C1321.74 18.9812 1321.33 18.5732 1320.85 18.2746C1320.36 17.9759 1319.81 17.7947 1319.25 17.7456H1318.97C1317.23 17.7456 1315.23 18.9975 1315.33 21.6787" fill="#685BA3"/>
<path d="M1322.12 24.8917L1317.3 36.0003L1327.51 29.0279C1329.87 27.3734 1329.49 24.7292 1328.17 23.4219C1327.83 23.0703 1327.42 22.7911 1326.96 22.6009C1326.51 22.4106 1326.02 22.3131 1325.53 22.314C1324.25 22.314 1322.89 22.9824 1322.11 24.8991" fill="#1986C8"/>
<path d="M1326.38 30.6085L1316.78 37.2559H1328.6C1331.02 37.2559 1332.58 34.7779 1331.89 32.5067C1331.65 31.7781 1331.2 31.1414 1330.58 30.6849C1329.96 30.2283 1329.22 29.9744 1328.46 29.9585C1327.71 29.9683 1326.99 30.1969 1326.38 30.6159" fill="#13A438"/>
<path d="M1301.56 37.2486H1313.2L1303.6 30.6012C1301.39 29.1905 1298.89 30.0177 1297.99 32.3591C1297.22 35.0365 1299.13 37.2413 1301.56 37.2413" fill="#F9B700"/>
<path d="M1357.58 37.2928V14.7285H1352.23L1346.3 24.2713L1340.37 14.7285H1335.02V37.2928H1339.89V22.6759L1346.17 32.2186H1346.29L1352.65 22.5799V37.3113L1357.58 37.2928Z" fill="#12100B"/>
<path d="M1377 30.6194V30.5529C1377.02 29.6814 1376.86 28.8148 1376.53 28.0085C1376.22 27.2965 1375.74 26.6652 1375.15 26.1619C1374.47 25.597 1373.71 25.1409 1372.89 24.8103C1371.9 24.4003 1370.88 24.0598 1369.85 23.791C1368.88 23.5362 1368.08 23.3109 1367.44 23.1152C1366.92 22.9706 1366.42 22.7648 1365.95 22.5022C1365.63 22.333 1365.37 22.0768 1365.19 21.7636C1365.04 21.469 1364.97 21.1432 1364.98 20.8145V20.748C1364.98 20.472 1365.05 20.2004 1365.18 19.9562C1365.3 19.7119 1365.49 19.5022 1365.72 19.3446C1366.2 18.9753 1366.92 18.7833 1367.89 18.7833C1368.89 18.7881 1369.87 18.9902 1370.79 19.3779C1371.83 19.8178 1372.82 20.3635 1373.74 21.0065L1376.33 17.2655C1375.18 16.3499 1373.89 15.6311 1372.51 15.1383C1371.04 14.6331 1369.5 14.3833 1367.95 14.3997C1366.86 14.3866 1365.79 14.55 1364.76 14.8835C1363.84 15.176 1362.99 15.6466 1362.26 16.2684C1361.57 16.8582 1361.01 17.5884 1360.63 18.4103C1360.23 19.2854 1360.04 20.2377 1360.05 21.1985V21.265C1360.02 22.227 1360.2 23.1839 1360.58 24.068C1360.93 24.8071 1361.44 25.4539 1362.08 25.9551C1362.8 26.4965 1363.59 26.925 1364.43 27.2255C1365.45 27.5987 1366.48 27.912 1367.53 28.1636C1368.47 28.4098 1369.24 28.635 1369.83 28.8394C1370.32 29.0029 1370.78 29.2184 1371.22 29.482C1371.5 29.6478 1371.74 29.8878 1371.89 30.1762C1372.02 30.4428 1372.08 30.7348 1372.08 31.0293V31.0958C1372.08 31.4085 1372.01 31.7175 1371.86 31.9918C1371.71 32.266 1371.49 32.4958 1371.22 32.658C1370.49 33.0751 1369.66 33.2714 1368.82 33.223C1367.59 33.2372 1366.38 32.9852 1365.25 32.4844C1364.12 31.9567 1363.05 31.2852 1362.08 30.4865L1359.13 33.9985C1360.44 35.197 1361.97 36.1234 1363.64 36.724C1365.26 37.3095 1366.98 37.6094 1368.7 37.6103C1369.84 37.6235 1370.97 37.4653 1372.06 37.1413C1373.01 36.863 1373.89 36.4041 1374.66 35.7896C1375.39 35.199 1375.98 34.4485 1376.37 33.596C1376.8 32.6606 1377.01 31.6424 1376.99 30.6157L1377 30.6194Z" fill="#12100B"/>
<path d="M1399.03 37.2928V14.7285H1394.13V28.6216L1383.56 14.7285H1378.98V37.2928H1383.88V22.9492L1394.81 37.2928H1399.03Z" fill="#12100B"/>
<path d="M1421.24 31.1034V31.0369C1421.24 29.5351 1420.86 28.3594 1420.11 27.5101C1419.26 26.5945 1418.19 25.902 1417.01 25.4937C1417.42 25.2793 1417.8 25.0204 1418.16 24.7218C1418.51 24.4172 1418.83 24.0642 1419.09 23.673C1419.37 23.2597 1419.58 22.8097 1419.74 22.3361C1419.91 21.7827 1419.99 21.2055 1419.98 20.6263V20.5635C1420.01 19.7482 1419.84 18.9377 1419.5 18.1983C1419.16 17.4589 1418.64 16.8115 1418 16.3091C1416.68 15.2529 1414.85 14.7261 1412.53 14.7285H1402.06V37.2928H1412.79C1413.96 37.3043 1415.12 37.1741 1416.25 36.9051C1417.21 36.6846 1418.12 36.2916 1418.93 35.7455C1419.65 35.2522 1420.24 34.5871 1420.64 33.8103C1421.05 32.9691 1421.26 32.0406 1421.24 31.1034ZM1415.04 21.4646C1415.06 21.8282 1414.99 22.1917 1414.82 22.5136C1414.65 22.8355 1414.39 23.1028 1414.07 23.2852C1413.27 23.6991 1412.37 23.8939 1411.46 23.8503H1406.89V19.0789H1411.78C1412.84 19.0789 1413.64 19.2783 1414.2 19.6772C1414.48 19.8703 1414.7 20.1298 1414.84 20.4314C1414.99 20.733 1415.06 21.0669 1415.04 21.4018V21.4646ZM1416.3 30.4903C1416.32 30.8534 1416.24 31.216 1416.08 31.5407C1415.91 31.8653 1415.67 32.1402 1415.36 32.3368C1414.57 32.7739 1413.68 32.9799 1412.78 32.9314H1406.87V27.9754H1412.6C1413.89 27.9754 1414.82 28.197 1415.41 28.6364C1415.69 28.8414 1415.91 29.1113 1416.06 29.4228C1416.22 29.7342 1416.29 30.0778 1416.28 30.4238L1416.3 30.4903Z" fill="#12100B"/>
<path d="M1442.78 33.6477L1439.62 30.4569C1438.82 31.2144 1437.93 31.8649 1436.96 32.3921C1435.95 32.8927 1434.82 33.1361 1433.69 33.1011C1432.77 33.1119 1431.86 32.9189 1431.03 32.5361C1430.25 32.1734 1429.54 31.653 1428.97 31.0072C1428.39 30.343 1427.93 29.5782 1427.63 28.7508C1427.3 27.874 1427.14 26.9456 1427.15 26.0105V25.9441C1427.14 25.0149 1427.3 24.0926 1427.63 23.2223C1427.94 22.3972 1428.4 21.6369 1428.99 20.9807C1429.58 20.323 1430.3 19.7992 1431.12 19.4439C1431.93 19.0886 1432.8 18.91 1433.69 18.92C1434.76 18.9035 1435.81 19.1348 1436.77 19.5958C1437.75 20.0927 1438.65 20.7215 1439.46 21.4644L1442.62 17.8231C1442.1 17.3045 1441.54 16.8301 1440.94 16.405C1440.33 15.9632 1439.67 15.5916 1438.98 15.2971C1438.22 14.978 1437.42 14.7403 1436.61 14.5881C1435.66 14.4078 1434.69 14.3212 1433.72 14.3295C1432.09 14.3093 1430.46 14.6222 1428.95 15.2491C1427.56 15.832 1426.31 16.6871 1425.26 17.764C1424.23 18.8295 1423.41 20.0831 1422.84 21.4571C1422.26 22.894 1421.96 24.4328 1421.97 25.9847V26.0475C1421.96 27.6053 1422.26 29.1499 1422.84 30.5936C1423.4 31.9749 1424.22 33.2314 1425.26 34.2889C1426.31 35.3463 1427.56 36.1831 1428.93 36.7498C1430.39 37.3594 1431.96 37.666 1433.54 37.6509C1434.53 37.6606 1435.52 37.5691 1436.5 37.3776C1437.34 37.2089 1438.15 36.9386 1438.93 36.5726C1439.66 36.2254 1440.34 35.7981 1440.98 35.2985C1441.62 34.7843 1442.22 34.2239 1442.78 33.6218V33.6477Z" fill="#12100B"/>
</svg>
